<svg width="100" height="100" viewBox="0 0 100 100" fill="none" xmlns="http://www.w3.org/2000/svg">
<path d="M50.625 59.9044C45.8884 59.9044 41.2991 59.3223 36.9851 58.1778C36.4642 58.0397 36.1498 57.4971 36.2873 56.9742C36.4249 56.4414 36.9654 56.1356 37.4862 56.2737C41.6333 57.3688 46.0554 57.9312 50.625 57.9312C68.4906 57.9312 83.0346 49.3082 83.0346 38.7022C83.0346 28.0962 68.4906 19.4732 50.625 19.4732C32.7594 19.4732 18.2154 28.0962 18.2154 38.7022C18.2154 44.0792 22.0971 49.2589 28.8581 52.9192C29.3396 53.1757 29.5165 53.7776 29.261 54.261C29.0055 54.7444 28.4061 54.922 27.9344 54.6655C20.5051 50.6402 16.25 44.829 16.25 38.7022C16.25 27.0109 31.6686 17.5 50.625 17.5C69.5814 17.5 85 27.0109 85 38.7022C85 50.3935 69.5814 59.9044 50.625 59.9044Z" fill="black"/>
<path d="M82.0519 46.5161C81.7178 46.5161 81.3935 46.3484 81.2068 46.0327C76.6274 38.3174 64.3337 33.1279 50.6152 33.1279C36.8966 33.1279 24.6128 38.3174 20.0334 46.0228C19.7583 46.4865 19.149 46.6444 18.6871 46.3681C18.2252 46.0919 18.068 45.4802 18.3432 45.0165C23.2665 36.729 36.2382 31.1547 50.6152 31.1547C64.9921 31.1547 77.9737 36.729 82.897 45.0165C83.1722 45.4802 83.0248 46.0919 82.5531 46.3681C82.3958 46.4668 82.2189 46.5063 82.0519 46.5063V46.5161Z" fill="black"/>
<path d="M50.625 76.3906C44.9057 76.3906 39.2453 75.5125 34.2531 73.855C33.7421 73.6873 33.4572 73.1249 33.634 72.6119C33.8011 72.0989 34.3612 71.8128 34.8722 71.9903C39.6678 73.5886 45.112 74.4273 50.625 74.4273C68.4906 74.4273 83.0346 65.8043 83.0346 55.1983V38.7022C83.0346 38.1596 83.4768 37.7156 84.0173 37.7156C84.5578 37.7156 85 38.1596 85 38.7022V55.1983C85 66.8896 69.5814 76.4005 50.625 76.4005V76.3906Z" fill="black"/>
<path d="M25.8903 69.7606C25.7036 69.7606 25.5169 69.7113 25.3498 69.5929C19.4831 65.6859 16.25 60.5654 16.25 55.1983V38.7022C16.25 38.1596 16.6922 37.7156 17.2327 37.7156C17.7732 37.7156 18.2154 38.1596 18.2154 38.7022V55.1983C18.2154 59.8945 21.134 64.4231 26.4406 67.9551C26.8927 68.261 27.0204 68.8727 26.7158 69.3265C26.5291 69.6126 26.2146 69.7705 25.9002 69.7705L25.8903 69.7606Z" fill="black"/>
<path d="M52.0892 67.5309C52.0892 68.8036 51.0574 69.8395 49.7897 69.8395C48.522 69.8395 47.4902 68.8036 47.4902 67.5309C47.4902 66.2582 48.522 65.2222 49.7897 65.2222C51.0574 65.2222 52.0892 66.2582 52.0892 67.5309Z" fill="black"/>
<path d="M65.9454 65.8142C65.9454 67.0869 64.9135 68.1228 63.6458 68.1228C62.3781 68.1228 61.3463 67.0869 61.3463 65.8142C61.3463 64.5415 62.3781 63.5055 63.6458 63.5055C64.9135 63.5055 65.9454 64.5415 65.9454 65.8142Z" fill="black"/>
<path d="M78.0916 60.2596C78.0916 61.5323 77.0597 62.5682 75.7921 62.5682C74.5244 62.5682 73.4925 61.5323 73.4925 60.2596C73.4925 58.9869 74.5244 57.9509 75.7921 57.9509C77.0597 57.9509 78.0916 58.9869 78.0916 60.2596Z" fill="black"/>
<path d="M41.4269 82.7542H36.4544C30.4599 82.7542 25.5857 77.8607 25.5857 71.8424V60.8614C25.5857 54.8431 30.4599 49.9495 36.4544 49.9495H41.4269C46.3011 49.9495 50.6053 53.2448 51.9025 57.9706C52.0499 58.4936 51.7355 59.0362 51.2146 59.1842C50.6938 59.3223 50.1533 59.0165 50.0059 58.4936C48.9446 54.626 45.4068 51.9227 41.4171 51.9227H36.4446C31.5311 51.9227 27.5413 55.9284 27.5413 60.8614V71.8424C27.5413 76.7754 31.5311 80.781 36.4446 80.781H41.4171C45.0039 80.781 48.2272 78.6203 49.6226 75.2856C49.829 74.7824 50.4088 74.5457 50.91 74.7627C51.4112 74.9699 51.647 75.552 51.4308 76.0552C49.7209 80.12 45.7901 82.7542 41.4072 82.7542H41.4269Z" fill="black"/>
<path d="M40.1101 76.6866H37.7811C34.7347 76.6866 32.2583 74.2003 32.2583 71.1419V61.5619C32.2583 58.5034 34.7347 56.0172 37.7811 56.0172H40.1101C40.6506 56.0172 41.0928 56.4611 41.0928 57.0038C41.0928 57.5464 40.6506 57.9904 40.1101 57.9904H37.7811C35.8156 57.9904 34.2237 59.5887 34.2237 61.5619V71.1419C34.2237 73.1151 35.8156 74.7134 37.7811 74.7134H40.1101C40.6506 74.7134 41.0928 75.1574 41.0928 75.7C41.0928 76.2426 40.6506 76.6866 40.1101 76.6866Z" fill="black"/>
<path d="M33.241 64.0383C33.241 64.0383 43.068 67.0474 49.7799 66.3469V68.6556C49.7799 68.6556 40.8471 68.9713 33.241 66.3469V64.0383Z" fill="black"/>
<path d="M83.0346 38.7022C83.0346 49.3082 68.4906 57.9312 50.625 57.9312C46.0554 57.9312 41.6333 57.3688 37.4862 56.2737C36.9654 56.1356 36.4249 56.4414 36.2873 56.9742C36.1498 57.4971 36.4642 58.0397 36.9851 58.1778C41.2991 59.3223 45.8884 59.9044 50.625 59.9044C69.5814 59.9044 85 50.3935 85 38.7022M83.0346 38.7022C83.0346 28.0962 68.4906 19.4732 50.625 19.4732C32.7594 19.4732 18.2154 28.0962 18.2154 38.7022M83.0346 38.7022V55.1983C83.0346 65.8043 68.4906 74.4273 50.625 74.4273C45.112 74.4273 39.6678 73.5886 34.8722 71.9903C34.3612 71.8128 33.8011 72.0989 33.634 72.6119C33.4572 73.1249 33.7421 73.6873 34.2531 73.855C39.2453 75.5125 44.9057 76.3906 50.625 76.3906V76.4005C69.5814 76.4005 85 66.8896 85 55.1983V38.7022M83.0346 38.7022C83.0346 38.1596 83.4768 37.7156 84.0173 37.7156C84.5578 37.7156 85 38.1596 85 38.7022M18.2154 38.7022C18.2154 44.0792 22.0971 49.2589 28.8581 52.9192C29.3396 53.1757 29.5165 53.7776 29.261 54.261C29.0055 54.7444 28.4061 54.922 27.9344 54.6655C20.5051 50.6402 16.25 44.829 16.25 38.7022M18.2154 38.7022C18.2154 38.1596 17.7732 37.7156 17.2327 37.7156C16.6922 37.7156 16.25 38.1596 16.25 38.7022M18.2154 38.7022V55.1983C18.2154 59.8945 21.134 64.4231 26.4406 67.9551C26.8927 68.261 27.0204 68.8727 26.7158 69.3265C26.5291 69.6126 26.2146 69.7705 25.9002 69.7705L25.8903 69.7606C25.7036 69.7606 25.5169 69.7113 25.3498 69.5929C19.4831 65.6859 16.25 60.5654 16.25 55.1983V38.7022M16.25 38.7022C16.25 27.0109 31.6686 17.5 50.625 17.5C69.5814 17.5 85 27.0109 85 38.7022M82.0519 46.5161C81.7178 46.5161 81.3935 46.3484 81.2068 46.0327C76.6274 38.3174 64.3337 33.1279 50.6152 33.1279C36.8966 33.1279 24.6128 38.3174 20.0334 46.0228C19.7583 46.4865 19.149 46.6444 18.6871 46.3681C18.2252 46.0919 18.068 45.4802 18.3432 45.0165C23.2665 36.729 36.2382 31.1547 50.6152 31.1547C64.9921 31.1547 77.9737 36.729 82.897 45.0165C83.1722 45.4802 83.0248 46.0919 82.5531 46.3681C82.3958 46.4668 82.2189 46.5063 82.0519 46.5063V46.5161ZM52.0892 67.5309C52.0892 68.8036 51.0574 69.8395 49.7897 69.8395C48.522 69.8395 47.4902 68.8036 47.4902 67.5309C47.4902 66.2582 48.522 65.2222 49.7897 65.2222C51.0574 65.2222 52.0892 66.2582 52.0892 67.5309ZM65.9454 65.8142C65.9454 67.0869 64.9135 68.1228 63.6458 68.1228C62.3781 68.1228 61.3463 67.0869 61.3463 65.8142C61.3463 64.5415 62.3781 63.5055 63.6458 63.5055C64.9135 63.5055 65.9454 64.5415 65.9454 65.8142ZM78.0916 60.2596C78.0916 61.5323 77.0597 62.5682 75.7921 62.5682C74.5244 62.5682 73.4925 61.5323 73.4925 60.2596C73.4925 58.9869 74.5244 57.9509 75.7921 57.9509C77.0597 57.9509 78.0916 58.9869 78.0916 60.2596ZM41.4269 82.7542H36.4544C30.4599 82.7542 25.5857 77.8607 25.5857 71.8424V60.8614C25.5857 54.8431 30.4599 49.9495 36.4544 49.9495H41.4269C46.3011 49.9495 50.6053 53.2448 51.9025 57.9706C52.0499 58.4936 51.7355 59.0362 51.2146 59.1842C50.6938 59.3223 50.1533 59.0165 50.0059 58.4936C48.9446 54.626 45.4068 51.9227 41.4171 51.9227H36.4446C31.5311 51.9227 27.5413 55.9284 27.5413 60.8614V71.8424C27.5413 76.7754 31.5311 80.781 36.4446 80.781H41.4171C45.0039 80.781 48.2272 78.6203 49.6226 75.2856C49.829 74.7824 50.4088 74.5457 50.91 74.7627C51.4112 74.9699 51.647 75.552 51.4308 76.0552C49.7209 80.12 45.7901 82.7542 41.4072 82.7542H41.4269ZM40.1101 76.6866H37.7811C34.7347 76.6866 32.2583 74.2003 32.2583 71.1419V61.5619C32.2583 58.5034 34.7347 56.0172 37.7811 56.0172H40.1101C40.6506 56.0172 41.0928 56.4611 41.0928 57.0038C41.0928 57.5464 40.6506 57.9904 40.1101 57.9904H37.7811C35.8156 57.9904 34.2237 59.5887 34.2237 61.5619V71.1419C34.2237 73.1151 35.8156 74.7134 37.7811 74.7134H40.1101C40.6506 74.7134 41.0928 75.1574 41.0928 75.7C41.0928 76.2426 40.6506 76.6866 40.1101 76.6866ZM33.241 64.0383C33.241 64.0383 43.068 67.0474 49.7799 66.3469V68.6556C49.7799 68.6556 40.8471 68.9713 33.241 66.3469V64.0383Z" stroke="black"/>
</svg>
