<svg width="32" height="32" viewBox="0 0 32 32" fill="none" xmlns="http://www.w3.org/2000/svg">
<path d="M8.59712 10.6259C9.01625 6.85376 12.2047 4 16 4V4C19.7953 4 22.9838 6.85376 23.4029 10.6259L23.7386 13.6475C23.8068 14.2616 23.841 14.5686 23.8978 14.8691C24.0354 15.5959 24.2731 16.3 24.6041 16.9614C24.741 17.2349 24.8999 17.4998 25.2178 18.0297L26.1826 19.6377C26.9884 20.9806 27.3912 21.6521 27.104 22.1594C26.8168 22.6667 26.0337 22.6667 24.4676 22.6667H7.53238C5.96627 22.6667 5.18322 22.6667 4.89599 22.1594C4.60876 21.6521 5.01164 20.9806 5.81739 19.6377L6.78221 18.0297C7.10009 17.4998 7.25904 17.2349 7.39591 16.9614C7.72691 16.3 7.96459 15.5959 8.10216 14.8691C8.15904 14.5686 8.19316 14.2616 8.26139 13.6475L8.59712 10.6259Z" stroke="#33363F" stroke-width="2"/>
<path d="M10.6654 22.6667C10.6654 23.367 10.8033 24.0606 11.0713 24.7076C11.3394 25.3547 11.7322 25.9427 12.2275 26.4379C12.7227 26.9331 13.3106 27.326 13.9577 27.594C14.6048 27.862 15.2983 28 15.9987 28C16.6991 28 17.3926 27.862 18.0397 27.594C18.6867 27.326 19.2747 26.9331 19.7699 26.4379C20.2652 25.9427 20.658 25.3547 20.9261 24.7076C21.1941 24.0606 21.332 23.367 21.332 22.6667" stroke="#33363F" stroke-width="2" stroke-linecap="round"/>
</svg>
