<svg width="36" height="36" viewBox="0 0 36 36" fill="none" xmlns="http://www.w3.org/2000/svg">
<path d="M7.43705 35.783C7.20153 35.7183 6.9722 35.6083 6.77386 35.4531C6.12927 34.955 5.85035 34.0947 6.07348 33.2927L9.04854 22.5941L0.718384 15.6212C0.0923833 15.0973 -0.155538 14.2241 0.0985812 13.4285C0.352701 12.6329 1.05308 12.0895 1.85262 12.0636L12.5194 11.7079L16.3064 1.28743C16.5915 0.504766 17.3105 -0.0126995 18.1101 0.000237129C18.265 0.000237129 18.42 0.0196421 18.5687 0.058452C19.1761 0.22016 19.6782 0.685879 19.8951 1.31977L23.5147 11.7984L34.1816 12.3288C34.3117 12.3288 34.4357 12.3547 34.5596 12.3871C35.1918 12.5552 35.7125 13.0533 35.9108 13.7195C36.1525 14.5151 35.8922 15.3884 35.26 15.8994L26.8307 22.7299L29.6384 33.4738C29.8491 34.2823 29.5578 35.1426 28.907 35.6277C28.4422 35.977 27.8596 36.0805 27.3203 35.9382C27.1096 35.88 26.9051 35.7894 26.7191 35.6536L17.8869 29.3923L8.96177 35.5048C8.50311 35.8218 7.95149 35.9059 7.44325 35.77L7.43705 35.783Z" fill="#43ADFF"/>
</svg>
