<svg width="18" height="18" viewBox="0 0 18 18" fill="none" xmlns="http://www.w3.org/2000/svg">
<path fill-rule="evenodd" clip-rule="evenodd" d="M18 9C18 13.9706 13.9706 18 9 18C4.02944 18 0 13.9706 0 9C0 4.02944 4.02944 0 9 0C13.9706 0 18 4.02944 18 9ZM12.7071 12.7071C12.3166 13.0976 11.6834 13.0976 11.2929 12.7071L9 10.4142L6.70711 12.7071C6.31658 13.0976 5.68342 13.0976 5.29289 12.7071C4.90237 12.3166 4.90237 11.6834 5.29289 11.2929L7.58579 9L5.29289 6.70711C4.90237 6.31658 4.90237 5.68342 5.29289 5.29289C5.68342 4.90237 6.31658 4.90237 6.70711 5.29289L9 7.58579L11.2929 5.29289C11.6834 4.90237 12.3166 4.90237 12.7071 5.29289C13.0976 5.68342 13.0976 6.31658 12.7071 6.70711L10.4142 9L12.7071 11.2929C13.0976 11.6834 13.0976 12.3166 12.7071 12.7071Z" fill="white"/>
</svg>
