<svg width="11" height="10" viewBox="0 0 11 10" fill="none" xmlns="http://www.w3.org/2000/svg">
<path d="M8.71526 1.21261C8.89135 1.04497 9.12567 0.952289 9.36878 0.954128C9.6119 0.955968 9.84479 1.05218 10.0183 1.22246C10.1918 1.39275 10.2924 1.62379 10.2989 1.86682C10.3053 2.10986 10.217 2.34589 10.0528 2.52511L5.06526 8.76261C4.9795 8.85498 4.87599 8.92911 4.76093 8.98056C4.64586 9.03202 4.5216 9.05974 4.39557 9.06208C4.26955 9.06441 4.14435 9.04131 4.02746 8.99415C3.91056 8.94699 3.80438 8.87674 3.71526 8.78761L0.40776 5.48011C0.315652 5.39428 0.241774 5.29078 0.190534 5.17578C0.139294 5.06078 0.111742 4.93664 0.109521 4.81076C0.1073 4.68488 0.130456 4.55984 0.177607 4.44311C0.224759 4.32637 0.294939 4.22033 0.383963 4.13131C0.472986 4.04228 0.579028 3.9721 0.695764 3.92495C0.812499 3.8778 0.937535 3.85464 1.06341 3.85687C1.18929 3.85909 1.31343 3.88664 1.42843 3.93788C1.54343 3.98912 1.64693 4.063 1.73276 4.15511L4.35026 6.77136L8.69151 1.24011C8.69933 1.23048 8.70642 1.2213 8.71526 1.21261Z" fill="white"/>
</svg>
