<svg width="100" height="100" viewBox="0 0 100 100" fill="none" xmlns="http://www.w3.org/2000/svg">
<path d="M50.5085 30.6411C56.1871 30.6411 60.7905 26.5801 60.7905 21.5705C60.7905 16.561 56.1871 12.5 50.5085 12.5C44.83 12.5 40.2266 16.561 40.2266 21.5705C40.2266 26.5801 44.83 30.6411 50.5085 30.6411Z" fill="white" stroke="black" stroke-width="2" stroke-linecap="round" stroke-linejoin="round"/>
<path d="M57.7716 29.0276C57.7716 29.0276 54.9043 38.8712 55.2209 39.7174C55.5374 40.5636 41.8281 39.7174 41.8281 39.7174C41.8281 39.7174 42.7839 30.1538 42.4673 27.9014" fill="white"/>
<path d="M57.7716 29.0276C57.7716 29.0276 54.9043 38.8712 55.2209 39.7174C55.5374 40.5636 41.8281 39.7174 41.8281 39.7174C41.8281 39.7174 42.7839 30.1538 42.4673 27.9014" stroke="black" stroke-width="2" stroke-linecap="round" stroke-linejoin="round"/>
<path d="M38.7596 64.5671C38.7596 64.5671 32.252 72.7671 33.5243 76.4258C34.7966 80.0844 38.3152 84.7293 40.2267 84.7293C42.1382 84.7293 43.7332 83.8831 43.7332 83.8831C43.7332 83.8831 54.2465 84.0901 58.7757 83.5848C60.0115 83.4509 62.7752 85.3989 64.3702 82.8665C65.9651 80.334 66.7626 75.8657 66.7139 74.6726C66.5374 69.979 61.2716 64.4697 61.2716 64.4697" fill="white"/>
<path d="M38.7596 64.5671C38.7596 64.5671 32.252 72.7671 33.5243 76.4258C34.7966 80.0844 38.3152 84.7293 40.2267 84.7293C42.1382 84.7293 43.7332 83.8831 43.7332 83.8831C43.7332 83.8831 54.2465 84.0901 58.7757 83.5848C60.0115 83.4509 62.7752 85.3989 64.3702 82.8665C65.9651 80.334 66.7626 75.8657 66.7139 74.6726C66.5374 69.979 61.2716 64.4697 61.2716 64.4697" stroke="black" stroke-width="2" stroke-linecap="round" stroke-linejoin="round"/>
<path d="M41.5525 36.875C41.5525 36.875 55.5358 37.1794 56.175 38.0256C56.8141 38.8717 60.9598 48.1553 60.9598 49.5616C60.9598 50.9678 60.6433 53.7803 60.6433 53.7803C60.6433 53.7803 61.0207 67.453 60.8441 68.3662C60.558 69.8942 48.1941 73.8633 38.5331 69.1454C38.5331 69.1454 36.4024 57.2563 37.0355 52.7576C37.6747 48.2588 41.5525 36.875 41.5525 36.875Z" fill="white" stroke="black" stroke-width="2" stroke-linecap="round" stroke-linejoin="round"/>
<path d="M60.2407 19.6055C60.4781 20.2386 65.5126 29.4004 64.8003 31.9329C64.082 34.4653 58.3292 35.5672 53.0695 33.4548C53.0695 33.4548 49.9588 31.4215 54.5062 22.1379" fill="white"/>
<path d="M60.2407 19.6055C60.4781 20.2386 65.5126 29.4004 64.8003 31.9329C64.082 34.4653 58.3292 35.5672 53.0695 33.4548C53.0695 33.4548 49.9588 31.4215 54.5062 22.1379" stroke="black" stroke-width="2" stroke-linecap="round" stroke-linejoin="round"/>
<path d="M40.8582 19.7012C40.4625 20.2734 33.8635 27.3411 33.9183 29.9527C33.9731 32.5643 38.0883 35.3768 43.7498 34.3662C43.7498 34.3662 47.865 33.2522 45.8074 23.305" fill="white"/>
<path d="M40.8582 19.7012C40.4625 20.2734 33.8635 27.3411 33.9183 29.9527C33.9731 32.5643 38.0883 35.3768 43.7498 34.3662C43.7498 34.3662 47.865 33.2522 45.8074 23.305" stroke="black" stroke-width="2" stroke-linecap="round" stroke-linejoin="round"/>
<path d="M47.6706 82.4352C47.7193 84.231 46.8123 87.6218 49.3934 88.5593C50.8423 89.0889 53.0581 88.4863 53.466 87.1226C53.6791 86.4043 53.5573 85.7164 53.3869 84.9981C53.1434 83.9814 53.2225 82.9465 53.0338 81.9238" fill="white"/>
<path d="M47.6706 82.4352C47.7193 84.231 46.8123 87.6218 49.3934 88.5593C50.8423 89.0889 53.0581 88.4863 53.466 87.1226C53.6791 86.4043 53.5573 85.7164 53.3869 84.9981C53.1434 83.9814 53.2225 82.9465 53.0338 81.9238" stroke="black" stroke-width="2" stroke-linecap="round" stroke-linejoin="round"/>
<path d="M46.8547 48.2045C45.9842 47.2427 43.75 47.5471 43.75 49.1298C43.75 53.8112 43.7865 58.4804 44.4379 63.1313C44.5718 64.0932 45.4424 64.8907 46.6234 64.5985C51.3047 63.454 55.4199 61.5303 55.7669 56.8368C56.1139 52.058 52.0961 48.2167 46.8547 48.2045ZM47.6522 61.1407C47.3112 57.8595 47.226 54.56 47.2078 51.2605C50.5194 51.4675 52.2179 53.7503 52.3153 56.8307C52.3944 59.2596 50.002 60.4224 47.6522 61.1346V61.1407Z" fill="white" stroke="black" stroke-width="2" stroke-linecap="round" stroke-linejoin="round"/>
<path d="M40.3555 39.9431C45.9865 40.1196 52.1167 40.1013 57.6382 41.0814C56.9625 39.5595 56.3902 38.3725 56.1893 38.0924C55.9519 37.7698 53.8091 37.508 51.2401 37.3071C47.9954 37.0941 44.7081 37.0271 41.5304 36.9297C41.3843 37.2949 40.9338 38.4212 40.3555 39.937V39.9431Z" fill="white" stroke="black" stroke-width="2" stroke-linecap="round" stroke-linejoin="round"/>
<path d="M60.8353 68.3716C60.8779 68.1342 60.8901 67.0506 60.8779 65.5713C58.2542 67.5985 53.9746 68.0307 51.0221 68.1829C46.8095 68.402 42.0246 68.2559 38.0859 66.4662C38.3355 68.0855 38.5303 69.1569 38.5303 69.1569C40.8801 70.3074 43.3943 70.9345 45.8537 71.2145C48.0392 71.3302 50.2185 71.2693 52.2762 71.1658C52.6353 71.1475 52.9945 71.1171 53.3658 71.0867C57.615 70.4779 60.7014 69.1325 60.8414 68.3777L60.8353 68.3716Z" fill="white" stroke="black" stroke-width="2" stroke-linecap="round" stroke-linejoin="round"/>
</svg>
