<svg width="100" height="100" viewBox="0 0 100 100" fill="none" xmlns="http://www.w3.org/2000/svg">
<path d="M50.5 76C37.6498 76 27.1926 64.5579 27.1926 50.5C27.1926 47.9792 27.5292 45.4877 28.1879 43.0984C28.2976 42.7112 28.7001 42.4847 29.088 42.587C29.4758 42.6966 29.7027 43.0984 29.6002 43.4857C28.9709 45.7507 28.6562 48.1107 28.6562 50.5C28.6562 63.7542 38.4548 74.5387 50.5 74.5387C62.5452 74.5387 72.3438 63.7542 72.3438 50.5C72.3438 48.1107 72.0291 45.7507 71.3998 43.4857C71.29 43.0984 71.5242 42.6966 71.912 42.587C72.2999 42.4774 72.7024 42.7112 72.8121 43.0984C73.4707 45.4877 73.8074 47.9792 73.8074 50.5C73.8074 64.5579 63.3501 76 50.5 76Z" fill="black"/>
<path d="M39.6037 28.9748C39.3329 28.9748 39.0695 28.8213 38.9451 28.5656C38.7695 28.2003 38.9158 27.7619 39.2817 27.5865C42.7943 25.8695 46.5703 25 50.5 25C54.4297 25 58.1984 25.8695 61.7036 27.5792C62.0695 27.7546 62.2159 28.193 62.0403 28.5583C61.8646 28.9236 61.4256 29.0698 61.0597 28.8944C57.7593 27.2797 54.2028 26.4686 50.5 26.4686C46.7972 26.4686 43.2334 27.287 39.9184 28.909C39.8159 28.9602 39.7062 28.9821 39.5964 28.9821L39.6037 28.9748Z" fill="black"/>
<path d="M40.3501 49.4478C41.5949 49.4478 42.604 48.4403 42.604 47.1974C42.604 45.9545 41.5949 44.947 40.3501 44.947C39.1053 44.947 38.0962 45.9545 38.0962 47.1974C38.0962 48.4403 39.1053 49.4478 40.3501 49.4478Z" fill="black"/>
<path d="M60.6499 49.4478C61.8947 49.4478 62.9038 48.4403 62.9038 47.1974C62.9038 45.9545 61.8947 44.947 60.6499 44.947C59.4051 44.947 58.396 45.9545 58.396 47.1974C58.396 48.4403 59.4051 49.4478 60.6499 49.4478Z" fill="black"/>
<path d="M45.4287 64.3168C42.2308 64.3168 39.6257 61.7156 39.6257 58.5226C39.6257 58.1208 39.955 57.792 40.3575 57.792C40.7599 57.792 41.0892 58.1208 41.0892 58.5226C41.0892 60.9119 43.0358 62.8554 45.4287 62.8554C47.8217 62.8554 49.7682 60.9119 49.7682 58.5226C49.7682 58.1208 50.0975 57.792 50.5 57.792C50.9025 57.792 51.2318 58.1208 51.2318 58.5226C51.2318 61.7156 48.6266 64.3168 45.4287 64.3168Z" fill="black"/>
<path d="M55.5786 64.3168C52.3807 64.3168 49.7755 61.7156 49.7755 58.5226C49.7755 58.1208 50.1048 57.792 50.5073 57.792C50.9098 57.792 51.2391 58.1208 51.2391 58.5226C51.2391 60.9119 53.1857 62.8554 55.5786 62.8554C57.9715 62.8554 59.9181 60.9119 59.9181 58.5226C59.9181 58.1208 60.2474 57.792 60.6499 57.792C61.0523 57.792 61.3816 58.1208 61.3816 58.5226C61.3816 61.7156 58.7765 64.3168 55.5786 64.3168Z" fill="black"/>
<path d="M50.5439 59.246C49.9512 59.246 49.3511 59.0268 48.8096 58.5884L47.3314 57.2513C47.2875 57.2148 47.2582 57.1709 47.2216 57.1271C46.7386 56.4403 46.6874 55.5562 47.0679 54.8109C47.4558 54.0656 48.2168 53.6053 49.0584 53.6053H51.9489C52.7905 53.6053 53.5515 54.0656 53.9394 54.8109C54.3272 55.5562 54.2687 56.4403 53.7857 57.1271C53.7564 57.1709 53.7199 57.2148 53.6759 57.2513L52.2343 58.5592C51.7367 59.0195 51.1513 59.246 50.5439 59.246ZM48.3851 56.2357L49.7609 57.4851C50.2658 57.887 50.8 57.9016 51.2464 57.4851L52.6222 56.2357C52.7539 56.0019 52.7612 55.7315 52.6368 55.4904C52.4978 55.2274 52.2416 55.0739 51.9489 55.0739H49.0584C48.7657 55.0739 48.5022 55.2274 48.3705 55.4904C48.2461 55.7315 48.2534 56.0019 48.3851 56.2357Z" fill="black"/>
<path d="M24.6094 67.2759H24.6021C21.3091 67.2759 18.9454 64.1487 18.843 64.0172C18.8283 63.9953 18.8137 63.9734 18.7917 63.9441C18.5356 63.5057 12.6594 53.0427 18.7625 40.0589C24.9314 26.9436 38.0523 28.3976 38.184 28.4122C38.5865 28.4633 38.8719 28.8287 38.8207 29.2232C38.7695 29.6251 38.4036 29.9027 38.0084 29.8589C37.5108 29.8004 25.8022 28.5364 20.0943 40.6726C14.4888 52.5897 19.6626 62.4682 20.0431 63.1696C20.2919 63.4838 22.2165 65.8073 24.6094 65.8073C26.0876 65.8073 27.5146 64.9086 28.8538 63.1331C29.0953 62.8116 29.5563 62.7458 29.8783 62.987C30.2003 63.2281 30.2661 63.6884 30.0246 64.0099C28.4001 66.1726 26.5779 67.2686 24.6094 67.2686V67.2759Z" fill="black"/>
<path d="M76.3906 67.2759C74.4294 67.2759 72.6072 66.1799 70.9754 64.0172C70.7339 63.6957 70.7997 63.2354 71.1217 62.9943C71.4437 62.7532 71.9047 62.8189 72.1462 63.1404C73.4854 64.9159 74.9124 65.8146 76.3906 65.8146H76.3979C78.8055 65.8146 80.7081 63.4911 80.9569 63.1769C81.3374 62.4828 86.4965 52.5678 80.9057 40.6799C75.1978 28.5437 63.4819 29.8077 62.9916 29.8662C62.5891 29.9173 62.2232 29.6324 62.1793 29.2305C62.1281 28.8287 62.4135 28.4633 62.816 28.4195C62.9477 28.4049 76.0686 26.9509 82.2375 40.0662C88.3406 53.05 82.4644 63.513 82.2083 63.9514C82.1936 63.9734 82.179 64.0026 82.1644 64.0245C82.0619 64.156 79.6982 67.2759 76.4052 67.2832H76.3979L76.3906 67.2759Z" fill="black"/>
<path d="M50.5 76C37.6498 76 27.1926 64.5579 27.1926 50.5C27.1926 47.9792 27.5292 45.4877 28.1879 43.0984C28.2976 42.7112 28.7001 42.4847 29.088 42.587C29.4758 42.6966 29.7027 43.0984 29.6002 43.4857C28.9709 45.7507 28.6562 48.1107 28.6562 50.5C28.6562 63.7542 38.4548 74.5387 50.5 74.5387C62.5452 74.5387 72.3438 63.7542 72.3438 50.5C72.3438 48.1107 72.0291 45.7507 71.3998 43.4857C71.29 43.0984 71.5242 42.6966 71.912 42.587C72.2999 42.4774 72.7024 42.7112 72.8121 43.0984C73.4707 45.4877 73.8074 47.9792 73.8074 50.5C73.8074 64.5579 63.3501 76 50.5 76Z" stroke="black"/>
<path d="M39.6037 28.9748C39.3329 28.9748 39.0695 28.8213 38.9451 28.5656C38.7695 28.2003 38.9158 27.7619 39.2817 27.5865C42.7943 25.8695 46.5703 25 50.5 25C54.4297 25 58.1984 25.8695 61.7036 27.5792C62.0695 27.7546 62.2159 28.193 62.0403 28.5583C61.8646 28.9236 61.4256 29.0698 61.0597 28.8944C57.7593 27.2797 54.2028 26.4686 50.5 26.4686C46.7972 26.4686 43.2334 27.287 39.9184 28.909C39.8159 28.9602 39.7062 28.9821 39.5964 28.9821L39.6037 28.9748Z" stroke="black"/>
<path d="M40.3501 49.4478C41.5949 49.4478 42.604 48.4403 42.604 47.1974C42.604 45.9545 41.5949 44.947 40.3501 44.947C39.1053 44.947 38.0962 45.9545 38.0962 47.1974C38.0962 48.4403 39.1053 49.4478 40.3501 49.4478Z" stroke="black"/>
<path d="M60.6499 49.4478C61.8947 49.4478 62.9038 48.4403 62.9038 47.1974C62.9038 45.9545 61.8947 44.947 60.6499 44.947C59.4051 44.947 58.396 45.9545 58.396 47.1974C58.396 48.4403 59.4051 49.4478 60.6499 49.4478Z" stroke="black"/>
<path d="M45.4287 64.3168C42.2308 64.3168 39.6257 61.7156 39.6257 58.5226C39.6257 58.1208 39.955 57.792 40.3575 57.792C40.7599 57.792 41.0892 58.1208 41.0892 58.5226C41.0892 60.9119 43.0358 62.8554 45.4287 62.8554C47.8217 62.8554 49.7682 60.9119 49.7682 58.5226C49.7682 58.1208 50.0975 57.792 50.5 57.792C50.9025 57.792 51.2318 58.1208 51.2318 58.5226C51.2318 61.7156 48.6266 64.3168 45.4287 64.3168Z" stroke="black"/>
<path d="M55.5786 64.3168C52.3807 64.3168 49.7755 61.7156 49.7755 58.5226C49.7755 58.1208 50.1048 57.792 50.5073 57.792C50.9098 57.792 51.2391 58.1208 51.2391 58.5226C51.2391 60.9119 53.1857 62.8554 55.5786 62.8554C57.9715 62.8554 59.9181 60.9119 59.9181 58.5226C59.9181 58.1208 60.2474 57.792 60.6499 57.792C61.0523 57.792 61.3816 58.1208 61.3816 58.5226C61.3816 61.7156 58.7765 64.3168 55.5786 64.3168Z" stroke="black"/>
<path d="M50.5439 59.246C49.9512 59.246 49.3511 59.0268 48.8096 58.5884L47.3314 57.2513C47.2875 57.2148 47.2582 57.1709 47.2216 57.1271C46.7386 56.4403 46.6874 55.5562 47.0679 54.8109C47.4558 54.0656 48.2168 53.6053 49.0584 53.6053H51.9489C52.7905 53.6053 53.5515 54.0656 53.9394 54.8109C54.3272 55.5562 54.2687 56.4403 53.7857 57.1271C53.7564 57.1709 53.7199 57.2148 53.6759 57.2513L52.2343 58.5592C51.7367 59.0195 51.1513 59.246 50.5439 59.246ZM48.3851 56.2357L49.7609 57.4851C50.2658 57.887 50.8 57.9016 51.2464 57.4851L52.6222 56.2357C52.7539 56.0019 52.7612 55.7315 52.6368 55.4904C52.4978 55.2274 52.2416 55.0739 51.9489 55.0739H49.0584C48.7657 55.0739 48.5022 55.2274 48.3705 55.4904C48.2461 55.7315 48.2534 56.0019 48.3851 56.2357Z" stroke="black"/>
<path d="M24.6094 67.2759H24.6021C21.3091 67.2759 18.9454 64.1487 18.843 64.0172C18.8283 63.9953 18.8137 63.9734 18.7917 63.9441C18.5356 63.5057 12.6594 53.0427 18.7625 40.0589C24.9314 26.9436 38.0523 28.3976 38.184 28.4122C38.5865 28.4633 38.8719 28.8287 38.8207 29.2232C38.7695 29.6251 38.4036 29.9027 38.0084 29.8589C37.5108 29.8004 25.8022 28.5364 20.0943 40.6726C14.4888 52.5897 19.6626 62.4682 20.0431 63.1696C20.2919 63.4838 22.2165 65.8073 24.6094 65.8073C26.0876 65.8073 27.5146 64.9086 28.8538 63.1331C29.0953 62.8116 29.5563 62.7458 29.8783 62.987C30.2003 63.2281 30.2661 63.6884 30.0246 64.0099C28.4001 66.1726 26.5779 67.2686 24.6094 67.2686V67.2759Z" stroke="black"/>
<path d="M76.3906 67.2759C74.4294 67.2759 72.6072 66.1799 70.9754 64.0172C70.7339 63.6957 70.7997 63.2354 71.1217 62.9943C71.4437 62.7532 71.9047 62.8189 72.1462 63.1404C73.4854 64.9159 74.9124 65.8146 76.3906 65.8146H76.3979C78.8055 65.8146 80.7081 63.4911 80.9569 63.1769C81.3374 62.4828 86.4965 52.5678 80.9057 40.6799C75.1978 28.5437 63.4819 29.8077 62.9916 29.8662C62.5891 29.9173 62.2232 29.6324 62.1793 29.2305C62.1281 28.8287 62.4135 28.4633 62.816 28.4195C62.9477 28.4049 76.0686 26.9509 82.2375 40.0662C88.3406 53.05 82.4644 63.513 82.2083 63.9514C82.1936 63.9734 82.179 64.0026 82.1644 64.0245C82.0619 64.156 79.6982 67.2759 76.4052 67.2832H76.3979L76.3906 67.2759Z" stroke="black"/>
</svg>
