<svg width="100" height="100" viewBox="0 0 100 100" fill="none" xmlns="http://www.w3.org/2000/svg">
<path d="M80.2612 87.9009H19.7388C19.1949 87.9009 18.75 87.4547 18.75 86.9093V49.4366C18.75 48.8913 19.1949 48.445 19.7388 48.445C20.2826 48.445 20.7275 48.8913 20.7275 49.4366V85.9177H79.2725V48.2368C79.2725 47.6914 79.7174 47.2452 80.2612 47.2452C80.8051 47.2452 81.25 47.6914 81.25 48.2368V86.9093C81.25 87.4547 80.8051 87.9009 80.2612 87.9009Z" fill="black"/>
<path d="M65.1331 87.9009H34.8768C34.333 87.9009 33.888 87.4547 33.888 86.9093V64.6478C33.888 64.1025 34.333 63.6562 34.8768 63.6562H65.1331C65.6769 63.6562 66.1219 64.1025 66.1219 64.6478V86.9093C66.1219 87.4547 65.6769 87.9009 65.1331 87.9009ZM35.8656 85.9177H64.1443V65.6394H35.8656V85.9177Z" fill="black"/>
<path d="M27.3028 58.2222C22.5864 58.2222 18.75 54.3748 18.75 49.6449V31.6869C18.75 31.1416 19.1949 30.6953 19.7388 30.6953C20.2826 30.6953 20.7275 31.1416 20.7275 31.6869V49.6449C20.7275 53.2841 23.6741 56.239 27.3028 56.239C30.9316 56.239 33.8781 53.2841 33.8781 49.6449V31.6869C33.8781 31.1416 34.3231 30.6953 34.8669 30.6953C35.4107 30.6953 35.8557 31.1416 35.8557 31.6869V49.6449C35.8557 54.3748 32.0193 58.2222 27.3028 58.2222Z" fill="black"/>
<path d="M42.431 58.2222C37.7146 58.2222 33.8781 54.3748 33.8781 49.6449V31.6869C33.8781 31.1416 34.3231 30.6953 34.8669 30.6953C35.4107 30.6953 35.8557 31.1416 35.8557 31.6869V49.6449C35.8557 53.2841 38.8022 56.239 42.431 56.239C46.0598 56.239 49.0063 53.2841 49.0063 49.6449V31.6869C49.0063 31.1416 49.4512 30.6953 49.9951 30.6953C50.5389 30.6953 50.9838 31.1416 50.9838 31.6869V49.6449C50.9838 54.3748 47.1474 58.2222 42.431 58.2222Z" fill="black"/>
<path d="M57.569 58.2222C52.8526 58.2222 49.0162 54.3748 49.0162 49.6449V31.6869C49.0162 31.1416 49.4611 30.6953 50.0049 30.6953C50.5488 30.6953 50.9937 31.1416 50.9937 31.6869V49.6449C50.9937 53.2841 53.9402 56.239 57.569 56.239C61.1978 56.239 64.1443 53.2841 64.1443 49.6449V31.6869C64.1443 31.1416 64.5893 30.6953 65.1331 30.6953C65.6769 30.6953 66.1219 31.1416 66.1219 31.6869V49.6449C66.1219 54.3748 62.2854 58.2222 57.569 58.2222Z" fill="black"/>
<path d="M72.6972 58.2222C67.9807 58.2222 64.1443 54.3748 64.1443 49.6449V31.6869C64.1443 31.1416 64.5893 30.6953 65.1331 30.6953C65.6769 30.6953 66.1219 31.1416 66.1219 31.6869V49.6449C66.1219 53.2841 69.0684 56.239 72.6972 56.239C76.3259 56.239 79.2725 53.2841 79.2725 49.6449V31.6869C79.2725 31.1416 79.7174 30.6953 80.2612 30.6953C80.8051 30.6953 81.25 31.1416 81.25 31.6869V49.6449C81.25 54.3748 77.4136 58.2222 72.6972 58.2222Z" fill="black"/>
<path d="M80.2612 32.6686H19.7388C19.1949 32.6686 18.75 32.2224 18.75 31.677C18.75 31.1316 19.1949 30.6854 19.7388 30.6854H80.2612C80.8051 30.6854 81.25 31.1316 81.25 31.677C81.25 32.2224 80.8051 32.6686 80.2612 32.6686Z" fill="black"/>
<path d="M66.4976 31.0622C63.4423 31.0622 61.0791 29.0592 59.0027 26.8083H40.7402C38.8022 28.9204 36.528 31.0622 33.977 31.0622C29.7649 31.0622 27.8862 28.2064 27.8862 25.3803C27.8862 23.179 28.7464 21.8998 29.7748 21.1165C28.8255 20.3728 27.8862 19.0936 27.8862 16.8426C27.8862 13.6596 30.3186 11.25 33.5519 11.25C36.6071 11.25 38.9703 13.253 41.0467 15.504H59.3092C61.2571 13.3919 63.5214 11.25 66.0724 11.25C70.2846 11.25 72.1632 14.1058 72.1632 16.9319C72.1632 19.1332 71.303 20.4124 70.2747 21.1958C71.2239 21.9395 72.1632 23.2187 72.1632 25.4696C72.1632 28.6526 69.7309 31.0622 66.4976 31.0622ZM40.3051 24.825H59.4378C59.7146 24.825 59.9816 24.944 60.1695 25.1523C62.0185 27.195 64.0652 29.079 66.4976 29.079C68.6333 29.079 70.1857 27.5619 70.1857 25.4696C70.1857 23.3773 69.2958 22.6931 67.9511 22.1576L67.872 22.1378C67.4765 22.0089 67.1996 21.642 67.1897 21.2156C67.1897 20.7892 67.4369 20.4124 67.8324 20.2637C69.2859 19.7183 70.1857 18.9746 70.1857 16.9319C70.1857 15.147 69.1079 13.2332 66.0724 13.2332C64.3816 13.2332 62.6117 14.7999 60.476 17.16C60.2881 17.3682 60.0212 17.4872 59.7443 17.4872H40.6117C40.3348 17.4872 40.0678 17.3682 39.88 17.16C38.031 15.1173 35.9842 13.2332 33.5519 13.2332C31.4161 13.2332 29.8637 14.7504 29.8637 16.8426C29.8637 18.9349 30.7536 19.6191 32.0984 20.1546L32.1775 20.1744C32.573 20.3033 32.8498 20.6702 32.8597 21.0966C32.8597 21.523 32.6125 21.8998 32.217 22.0486C30.7635 22.5939 29.8637 23.3376 29.8637 25.3803C29.8637 27.1652 30.9415 29.079 33.977 29.079C35.6678 29.079 37.4377 27.5123 39.5734 25.1523C39.7613 24.944 40.0283 24.825 40.3051 24.825Z" fill="black"/>
<path d="M33.8781 49.6449C33.8781 53.2841 30.9316 56.239 27.3028 56.239C23.6741 56.239 20.7275 53.2841 20.7275 49.6449V31.6869C20.7275 31.1416 20.2826 30.6953 19.7388 30.6953C19.1949 30.6953 18.75 31.1416 18.75 31.6869V49.6449C18.75 54.3748 22.5864 58.2222 27.3028 58.2222C32.0193 58.2222 35.8557 54.3748 35.8557 49.6449M33.8781 49.6449V31.6869C33.8781 31.1416 34.3231 30.6953 34.8669 30.6953C35.4107 30.6953 35.8557 31.1416 35.8557 31.6869V49.6449M33.8781 49.6449C33.8781 54.3748 37.7146 58.2222 42.431 58.2222C47.1474 58.2222 50.9838 54.3748 50.9838 49.6449V31.6869C50.9838 31.1416 50.5389 30.6953 49.9951 30.6953C49.4512 30.6953 49.0063 31.1416 49.0063 31.6869V49.6449C49.0063 53.2841 46.0598 56.239 42.431 56.239C38.8022 56.239 35.8557 53.2841 35.8557 49.6449M64.1443 49.6449C64.1443 53.2841 61.1978 56.239 57.569 56.239C53.9402 56.239 50.9937 53.2841 50.9937 49.6449V31.6869C50.9937 31.1416 50.5488 30.6953 50.0049 30.6953C49.4611 30.6953 49.0162 31.1416 49.0162 31.6869V49.6449C49.0162 54.3748 52.8526 58.2222 57.569 58.2222C62.2854 58.2222 66.1219 54.3748 66.1219 49.6449M64.1443 49.6449V31.6869C64.1443 31.1416 64.5893 30.6953 65.1331 30.6953C65.6769 30.6953 66.1219 31.1416 66.1219 31.6869V49.6449M64.1443 49.6449C64.1443 54.3748 67.9807 58.2222 72.6972 58.2222C77.4136 58.2222 81.25 54.3748 81.25 49.6449V31.6869C81.25 31.1416 80.8051 30.6953 80.2612 30.6953C79.7174 30.6953 79.2725 31.1416 79.2725 31.6869V49.6449C79.2725 53.2841 76.3259 56.239 72.6972 56.239C69.0684 56.239 66.1219 53.2841 66.1219 49.6449M80.2612 87.9009H19.7388C19.1949 87.9009 18.75 87.4547 18.75 86.9093V49.4366C18.75 48.8913 19.1949 48.445 19.7388 48.445C20.2826 48.445 20.7275 48.8913 20.7275 49.4366V85.9177H79.2725V48.2368C79.2725 47.6914 79.7174 47.2452 80.2612 47.2452C80.8051 47.2452 81.25 47.6914 81.25 48.2368V86.9093C81.25 87.4547 80.8051 87.9009 80.2612 87.9009ZM65.1331 87.9009H34.8768C34.333 87.9009 33.888 87.4547 33.888 86.9093V64.6478C33.888 64.1025 34.333 63.6562 34.8768 63.6562H65.1331C65.6769 63.6562 66.1219 64.1025 66.1219 64.6478V86.9093C66.1219 87.4547 65.6769 87.9009 65.1331 87.9009ZM35.8656 85.9177H64.1443V65.6394H35.8656V85.9177ZM80.2612 32.6686H19.7388C19.1949 32.6686 18.75 32.2224 18.75 31.677C18.75 31.1316 19.1949 30.6854 19.7388 30.6854H80.2612C80.8051 30.6854 81.25 31.1316 81.25 31.677C81.25 32.2224 80.8051 32.6686 80.2612 32.6686ZM66.4976 31.0622C63.4423 31.0622 61.0791 29.0592 59.0027 26.8083H40.7402C38.8022 28.9204 36.528 31.0622 33.977 31.0622C29.7649 31.0622 27.8862 28.2064 27.8862 25.3803C27.8862 23.179 28.7464 21.8998 29.7748 21.1165C28.8255 20.3728 27.8862 19.0936 27.8862 16.8426C27.8862 13.6596 30.3186 11.25 33.5519 11.25C36.6071 11.25 38.9703 13.253 41.0467 15.504H59.3092C61.2571 13.3919 63.5214 11.25 66.0724 11.25C70.2846 11.25 72.1632 14.1058 72.1632 16.9319C72.1632 19.1332 71.303 20.4124 70.2747 21.1958C71.2239 21.9395 72.1632 23.2187 72.1632 25.4696C72.1632 28.6526 69.7309 31.0622 66.4976 31.0622ZM40.3051 24.825H59.4378C59.7146 24.825 59.9816 24.944 60.1695 25.1523C62.0185 27.195 64.0652 29.079 66.4976 29.079C68.6333 29.079 70.1857 27.5619 70.1857 25.4696C70.1857 23.3773 69.2958 22.6931 67.9511 22.1576L67.872 22.1378C67.4765 22.0089 67.1996 21.642 67.1897 21.2156C67.1897 20.7892 67.4369 20.4124 67.8324 20.2637C69.2859 19.7183 70.1857 18.9746 70.1857 16.9319C70.1857 15.147 69.1079 13.2332 66.0724 13.2332C64.3816 13.2332 62.6117 14.7999 60.476 17.16C60.2881 17.3682 60.0212 17.4872 59.7443 17.4872H40.6117C40.3348 17.4872 40.0678 17.3682 39.88 17.16C38.031 15.1173 35.9842 13.2332 33.5519 13.2332C31.4161 13.2332 29.8637 14.7504 29.8637 16.8426C29.8637 18.9349 30.7536 19.6191 32.0984 20.1546L32.1775 20.1744C32.573 20.3033 32.8498 20.6702 32.8597 21.0966C32.8597 21.523 32.6125 21.8998 32.217 22.0486C30.7635 22.5939 29.8637 23.3376 29.8637 25.3803C29.8637 27.1652 30.9415 29.079 33.977 29.079C35.6678 29.079 37.4377 27.5123 39.5734 25.1523C39.7613 24.944 40.0283 24.825 40.3051 24.825Z" stroke="black"/>
</svg>
