<svg width="100" height="100" viewBox="0 0 100 100" fill="none" xmlns="http://www.w3.org/2000/svg">
<path d="M18.7623 71.25C17.9905 71.25 17.2732 70.8847 16.7977 70.2396C16.2675 69.5245 16.1116 68.584 16.3767 67.7135L21.6703 41.3104C22.0289 40.1289 22.9878 39.3828 24.0793 39.3828H76.1501C77.2026 39.3828 78.1538 40.0901 78.5124 41.1549L84.8585 67.698C85.1392 68.5063 84.9988 69.4701 84.4687 70.2007C83.9931 70.8691 83.2681 71.25 82.4806 71.25H18.7623ZM24.0793 40.9373C23.6817 40.9373 23.3231 41.2404 23.1828 41.6912L17.8813 68.0944C17.741 68.5685 17.8112 68.996 18.0451 69.3146C18.1542 69.4546 18.3881 69.6955 18.7545 69.6955H82.4729C82.8549 69.6955 83.0888 69.4468 83.1979 69.2991C83.4396 68.9649 83.4942 68.5296 83.3616 68.1255L77.0155 41.5824C76.8908 41.2249 76.5321 40.9373 76.1501 40.9373H24.0793Z" fill="black"/>
<path d="M62.4054 63.6951C59.7937 63.6951 57.7823 61.9852 55.997 60.0654H44.9731C43.3125 61.8686 41.3713 63.6951 39.1961 63.6951C35.6255 63.6951 34.0351 61.2934 34.0351 58.9151C34.0351 57.0108 34.7991 55.9382 35.7035 55.2775C34.8771 54.6635 34.0351 53.5753 34.0351 51.6245C34.0351 48.9429 36.0933 46.9221 38.8297 46.9221C41.5662 46.9221 43.4529 48.632 45.2382 50.5518H56.262C57.9226 48.7486 59.8639 46.9221 62.039 46.9221C65.6097 46.9221 67.2001 49.3238 67.2001 51.7022C67.2001 53.6064 66.4361 54.6868 65.5317 55.3397C66.3581 55.9537 67.2001 57.0419 67.2001 58.9928C67.2001 61.6743 65.1419 63.6951 62.4054 63.6951ZM44.6301 58.5109H56.34C56.5583 58.5109 56.7688 58.6042 56.9169 58.7674C58.5151 60.524 60.2849 62.1406 62.4054 62.1406C64.2765 62.1406 65.6409 60.8193 65.6409 58.9928C65.6409 57.1662 64.6975 56.5056 63.6762 56.1014L63.606 56.0781C63.2942 55.977 63.0759 55.6895 63.0681 55.3552C63.0681 55.0288 63.263 54.7257 63.5749 54.6091C64.8534 54.135 65.6409 53.4821 65.6409 51.7022C65.6409 50.1399 64.6975 48.4766 62.039 48.4766C60.5655 48.4766 59.0297 49.829 57.182 51.8499C57.0339 52.0131 56.8234 52.1063 56.6051 52.1063H44.8952C44.6769 52.1063 44.4664 52.0131 44.3182 51.8499C42.72 50.0933 40.9503 48.4766 38.8297 48.4766C36.9586 48.4766 35.5943 49.7979 35.5943 51.6245C35.5943 53.451 36.5376 54.1117 37.5589 54.5158L37.6291 54.5391C37.941 54.6402 38.1593 54.9278 38.1671 55.262C38.1671 55.5884 37.9721 55.8916 37.6603 56.0081C36.3817 56.4823 35.5943 57.1352 35.5943 58.9151C35.5943 60.4773 36.5376 62.1406 39.1961 62.1406C40.6696 62.1406 42.2055 60.7882 44.0532 58.7674C44.2013 58.6042 44.4118 58.5109 44.6301 58.5109Z" fill="black"/>
<path d="M73.8581 40.7041C73.7255 40.7041 73.593 40.673 73.476 40.6031C73.1018 40.3932 72.9693 39.9191 73.1798 39.546C73.5462 38.9009 73.7411 38.1625 73.7411 37.4086C73.7411 35.2167 72.1663 33.4368 70.2328 33.4368C69.3518 33.4368 68.5099 33.8099 67.855 34.4939C67.5587 34.8048 67.0208 34.8048 66.7245 34.4939C66.0696 33.8099 65.2277 33.4368 64.3467 33.4368C63.4657 33.4368 62.6315 33.8099 61.9766 34.4861C61.7739 34.696 61.4777 34.7737 61.197 34.696C60.9164 34.6182 60.7059 34.3851 60.6513 34.1052C60.2771 32.2943 58.8738 31.0351 57.2366 31.0351C55.5058 31.0351 54.0167 32.4963 53.7672 34.4395C53.7205 34.8048 53.4242 35.0846 53.0578 35.1157C52.6992 35.1468 52.3561 34.9214 52.247 34.5716C51.7558 32.9705 50.4227 31.8979 48.9336 31.8979C47.5459 31.8979 46.2829 32.8306 45.7216 34.2762C45.6124 34.5483 45.3629 34.7426 45.0667 34.7659C44.7704 34.797 44.4898 34.6493 44.3338 34.4006C43.6712 33.3435 42.6031 32.7062 41.4648 32.7062C40.8645 32.7062 40.2954 32.8772 39.7653 33.2036C39.5626 33.328 39.3209 33.3591 39.0948 33.2814C38.8687 33.2036 38.6972 33.0326 38.6114 32.8072C38.0735 31.2916 36.7949 30.3123 35.3604 30.3123C33.427 30.3123 31.8521 32.0922 31.8521 34.284C31.8521 34.5327 31.8755 34.797 31.9223 35.0535C31.9691 35.3178 31.8755 35.5898 31.665 35.7686C31.4623 35.9473 31.1739 36.0095 30.9166 35.924C30.6047 35.823 30.2851 35.7763 29.9732 35.7763C28.0398 35.7763 26.465 37.5562 26.465 39.7481C26.465 40.1756 26.1141 40.5253 25.6853 40.5253C25.2565 40.5253 24.9057 40.1756 24.9057 39.7481C24.9057 36.7013 27.1822 34.2218 29.9732 34.2218C30.0746 34.2218 30.1837 34.2218 30.2851 34.2296C30.3085 31.2061 32.5694 28.75 35.3526 28.75C37.1847 28.75 38.8219 29.7915 39.7185 31.4704C40.272 31.2527 40.8567 31.1362 41.4493 31.1362C42.72 31.1362 43.9284 31.6569 44.8484 32.5585C45.7917 31.1672 47.2886 30.32 48.9258 30.32C50.4617 30.32 51.865 31.0662 52.8083 32.2943C53.6815 30.5999 55.3577 29.4651 57.2288 29.4651C59.2324 29.4651 60.9865 30.7087 61.8051 32.6129C63.4735 31.5559 65.7032 31.6647 67.2781 32.9005C68.1356 32.2321 69.1569 31.8745 70.225 31.8745C73.0239 31.8745 75.2926 34.354 75.2926 37.4008C75.2926 38.4268 75.0275 39.4294 74.5285 40.3077C74.3882 40.5642 74.1231 40.7041 73.8503 40.7041H73.8581Z" fill="black"/>
<path d="M18.7623 71.25C17.9905 71.25 17.2732 70.8847 16.7977 70.2396C16.2675 69.5245 16.1116 68.584 16.3767 67.7135L21.6703 41.3104C22.0289 40.1289 22.9878 39.3828 24.0793 39.3828H76.1501C77.2026 39.3828 78.1538 40.0901 78.5124 41.1549L84.8585 67.698C85.1392 68.5063 84.9988 69.4701 84.4687 70.2007C83.9931 70.8691 83.2681 71.25 82.4806 71.25H18.7623ZM24.0793 40.9373C23.6817 40.9373 23.3231 41.2404 23.1828 41.6912L17.8813 68.0944C17.741 68.5685 17.8112 68.996 18.0451 69.3146C18.1542 69.4546 18.3881 69.6955 18.7545 69.6955H82.4729C82.8549 69.6955 83.0888 69.4468 83.1979 69.2991C83.4396 68.9649 83.4942 68.5296 83.3616 68.1255L77.0155 41.5824C76.8908 41.2249 76.5321 40.9373 76.1501 40.9373H24.0793Z" stroke="black"/>
<path d="M62.4054 63.6951C59.7937 63.6951 57.7823 61.9852 55.997 60.0654H44.9731C43.3125 61.8686 41.3713 63.6951 39.1961 63.6951C35.6255 63.6951 34.0351 61.2934 34.0351 58.9151C34.0351 57.0108 34.7991 55.9382 35.7035 55.2775C34.8771 54.6635 34.0351 53.5753 34.0351 51.6245C34.0351 48.9429 36.0933 46.9221 38.8297 46.9221C41.5662 46.9221 43.4529 48.632 45.2382 50.5518H56.262C57.9226 48.7486 59.8639 46.9221 62.039 46.9221C65.6097 46.9221 67.2001 49.3238 67.2001 51.7022C67.2001 53.6064 66.4361 54.6868 65.5317 55.3397C66.3581 55.9537 67.2001 57.0419 67.2001 58.9928C67.2001 61.6743 65.1419 63.6951 62.4054 63.6951ZM44.6301 58.5109H56.34C56.5583 58.5109 56.7688 58.6042 56.9169 58.7674C58.5151 60.524 60.2849 62.1406 62.4054 62.1406C64.2765 62.1406 65.6409 60.8193 65.6409 58.9928C65.6409 57.1662 64.6975 56.5056 63.6762 56.1014L63.606 56.0781C63.2942 55.977 63.0759 55.6895 63.0681 55.3552C63.0681 55.0288 63.263 54.7257 63.5749 54.6091C64.8534 54.135 65.6409 53.4821 65.6409 51.7022C65.6409 50.1399 64.6975 48.4766 62.039 48.4766C60.5655 48.4766 59.0297 49.829 57.182 51.8499C57.0339 52.0131 56.8234 52.1063 56.6051 52.1063H44.8952C44.6769 52.1063 44.4664 52.0131 44.3182 51.8499C42.72 50.0933 40.9503 48.4766 38.8297 48.4766C36.9586 48.4766 35.5943 49.7979 35.5943 51.6245C35.5943 53.451 36.5376 54.1117 37.5589 54.5158L37.6291 54.5391C37.941 54.6402 38.1593 54.9278 38.1671 55.262C38.1671 55.5884 37.9721 55.8916 37.6603 56.0081C36.3817 56.4823 35.5943 57.1352 35.5943 58.9151C35.5943 60.4773 36.5376 62.1406 39.1961 62.1406C40.6696 62.1406 42.2055 60.7882 44.0532 58.7674C44.2013 58.6042 44.4118 58.5109 44.6301 58.5109Z" stroke="black"/>
<path d="M73.8581 40.7041C73.7255 40.7041 73.593 40.673 73.476 40.6031C73.1018 40.3932 72.9693 39.9191 73.1798 39.546C73.5462 38.9009 73.7411 38.1625 73.7411 37.4086C73.7411 35.2167 72.1663 33.4368 70.2328 33.4368C69.3518 33.4368 68.5099 33.8099 67.855 34.4939C67.5587 34.8048 67.0208 34.8048 66.7245 34.4939C66.0696 33.8099 65.2277 33.4368 64.3467 33.4368C63.4657 33.4368 62.6315 33.8099 61.9766 34.4861C61.7739 34.696 61.4777 34.7737 61.197 34.696C60.9164 34.6182 60.7059 34.3851 60.6513 34.1052C60.2771 32.2943 58.8738 31.0351 57.2366 31.0351C55.5058 31.0351 54.0167 32.4963 53.7672 34.4395C53.7205 34.8048 53.4242 35.0846 53.0578 35.1157C52.6992 35.1468 52.3561 34.9214 52.247 34.5716C51.7558 32.9705 50.4227 31.8979 48.9336 31.8979C47.5459 31.8979 46.2829 32.8306 45.7216 34.2762C45.6124 34.5483 45.3629 34.7426 45.0667 34.7659C44.7704 34.797 44.4898 34.6493 44.3338 34.4006C43.6712 33.3435 42.6031 32.7062 41.4648 32.7062C40.8645 32.7062 40.2954 32.8772 39.7653 33.2036C39.5626 33.328 39.3209 33.3591 39.0948 33.2814C38.8687 33.2036 38.6972 33.0326 38.6114 32.8072C38.0735 31.2916 36.7949 30.3123 35.3604 30.3123C33.427 30.3123 31.8521 32.0922 31.8521 34.284C31.8521 34.5327 31.8755 34.797 31.9223 35.0535C31.9691 35.3178 31.8755 35.5898 31.665 35.7686C31.4623 35.9473 31.1739 36.0095 30.9166 35.924C30.6047 35.823 30.2851 35.7763 29.9732 35.7763C28.0398 35.7763 26.465 37.5562 26.465 39.7481C26.465 40.1756 26.1141 40.5253 25.6853 40.5253C25.2565 40.5253 24.9057 40.1756 24.9057 39.7481C24.9057 36.7013 27.1822 34.2218 29.9732 34.2218C30.0746 34.2218 30.1837 34.2218 30.2851 34.2296C30.3085 31.2061 32.5694 28.75 35.3526 28.75C37.1847 28.75 38.8219 29.7915 39.7185 31.4704C40.272 31.2527 40.8567 31.1362 41.4493 31.1362C42.72 31.1362 43.9284 31.6569 44.8484 32.5585C45.7917 31.1672 47.2886 30.32 48.9258 30.32C50.4617 30.32 51.865 31.0662 52.8083 32.2943C53.6815 30.5999 55.3577 29.4651 57.2288 29.4651C59.2324 29.4651 60.9865 30.7087 61.8051 32.6129C63.4735 31.5559 65.7032 31.6647 67.2781 32.9005C68.1356 32.2321 69.1569 31.8745 70.225 31.8745C73.0239 31.8745 75.2926 34.354 75.2926 37.4008C75.2926 38.4268 75.0275 39.4294 74.5285 40.3077C74.3882 40.5642 74.1231 40.7041 73.8503 40.7041H73.8581Z" stroke="black"/>
</svg>
