<svg width="24" height="24" viewBox="0 0 24 24" fill="#ffffff" xmlns="http://www.w3.org/2000/svg">
<g id="like_icon" fill="#ffffff">
<rect id="Rectangle 4171" x="1.4375" y="10.5601" width="4.32" height="10.56" fill="#ffffff"/>
<path id="Vector" d="M22.5521 13.6474C22.6043 13.1014 22.4236 12.5567 22.0566 12.1535C21.6896 11.7498 21.1667 11.5182 20.6213 11.5182C20.9098 11.1334 21.0462 10.6494 21.0004 10.1649C20.9069 9.18312 20.0295 8.41414 19.0031 8.41414H15.7339L16.0212 7.58151C16.0504 7.48631 16.0659 7.41636 16.0877 7.31428C16.1347 7.09121 16.1582 6.86585 16.1582 6.64278V4.53425C16.1582 3.35755 15.2006 2.3999 14.0239 2.3999H13.6357C13.0657 2.3999 12.5295 2.62182 12.1264 3.02495C11.7233 3.42808 11.5013 3.96425 11.5013 4.53482V6.28783C11.4916 6.31707 11.4652 6.38359 11.4016 6.51663C10.7874 7.80285 9.81714 8.91131 8.59572 9.72158L6.39313 11.1833V10.3541C6.39313 10.1396 6.21938 9.96587 6.00492 9.96587H1.34916C1.13469 9.96587 0.960938 10.1396 0.960938 10.3541V21.2191C0.960938 21.4335 1.13469 21.6073 1.34916 21.6073H18.2261C19.2525 21.6073 20.1305 20.8383 20.2239 19.856C20.2755 19.3124 20.0972 18.7705 19.7336 18.3673C20.4183 18.1053 20.9298 17.4883 20.9998 16.7514C21.0462 16.2663 20.9086 15.7823 20.6202 15.3969C21.6185 15.3648 22.4609 14.6079 22.5521 13.6468V13.6474ZM1.7368 10.7417H5.61727V20.8303H1.7368V10.7417ZM20.5537 14.6222H19.0685H17.4233C17.2088 14.6222 17.035 14.796 17.035 15.0104C17.035 15.2249 17.2088 15.3986 17.4233 15.3986H19.0696C19.3965 15.3986 19.7107 15.5374 19.9309 15.78C20.154 16.0254 20.2595 16.3448 20.2274 16.6786C20.1712 17.2663 19.6333 17.7268 19.0025 17.7268H18.5879V17.7245H17.4238C17.2094 17.7245 17.0356 17.8983 17.0356 18.1127C17.0356 18.3272 17.2094 18.5009 17.4238 18.5009H18.2834C18.2869 18.5009 18.2897 18.5032 18.2937 18.5032C18.6212 18.5032 18.9348 18.642 19.155 18.8846C19.3787 19.13 19.4842 19.4494 19.4521 19.7826C19.3959 20.3709 18.858 20.8314 18.2266 20.8314H6.39313V12.1151L9.02465 10.3684C10.3631 9.48017 11.4274 8.26447 12.1017 6.85094C12.2508 6.53842 12.2778 6.43004 12.2778 6.32854V4.53425C12.2766 4.17126 12.4183 3.83064 12.6746 3.57373C12.9309 3.31741 13.2721 3.17577 13.6351 3.17577H14.0233C14.7722 3.17577 15.3812 3.78533 15.3812 4.53367V6.64221C15.3812 6.81138 15.3629 6.98398 15.3273 7.15372C15.3113 7.22941 15.3004 7.2816 15.2826 7.34009L14.8216 8.67506C14.7808 8.79376 14.7998 8.9245 14.8726 9.02715C14.9454 9.12922 15.063 9.19 15.1886 9.19H19.0019C19.6327 9.19 20.1712 9.65048 20.2268 10.2383C20.2589 10.572 20.1534 10.8914 19.9298 11.1368C19.7096 11.3794 19.3953 11.5182 19.0685 11.5182C19.0644 11.5182 19.0616 11.5205 19.0576 11.5205H17.4227C17.2082 11.5205 17.0345 11.6942 17.0345 11.9087C17.0345 12.1232 17.2082 12.2969 17.4227 12.2969H19.7508V12.2946H20.6208C20.9476 12.2946 21.2619 12.4334 21.4821 12.6759C21.7051 12.922 21.8112 13.2408 21.7791 13.5745C21.7229 14.1623 21.1844 14.6228 20.5537 14.6228V14.6222Z" fill="#ffffff"/>
</g>
</svg>
