<svg width="24" height="24" viewBox="0 0 24 24" fill="none" xmlns="http://www.w3.org/2000/svg">
<path fill-rule="evenodd" clip-rule="evenodd" d="M9.94112 12.6464L7.69388 11.8973L7.69388 11.8973L7.69387 11.8973C5.34067 11.1129 4.16406 10.7207 4.16406 9.99997C4.16406 9.27921 5.34067 8.88701 7.69389 8.10261L16.2071 5.26488C17.8628 4.71295 18.6907 4.43699 19.1278 4.87401C19.5648 5.31102 19.2888 6.13892 18.7369 7.79471L15.8991 16.3079L15.8991 16.3079L15.8991 16.3079C15.1147 18.6611 14.7225 19.8377 14.0018 19.8377C13.281 19.8377 12.8888 18.6611 12.1044 16.3079L11.3553 14.0606L15.7089 9.70708C16.0994 9.31656 16.0994 8.68339 15.7089 8.29287C15.3184 7.90234 14.6852 7.90234 14.2947 8.29287L9.94112 12.6464Z" fill="current"/>
</svg>
