<svg width="24" height="24" viewBox="0 0 24 24" fill="none" xmlns="http://www.w3.org/2000/svg">
<path d="M15.8476 3.06066L4.4997 14.4086C4.48868 14.4196 4.47773 14.4305 4.46687 14.4414C4.3044 14.6035 4.16057 14.747 4.0592 14.926C3.95784 15.1051 3.90877 15.3022 3.85333 15.525C3.84963 15.5399 3.84589 15.5549 3.84211 15.57L2.71704 20.0703C2.71483 20.0791 2.7126 20.088 2.71036 20.097C2.67112 20.2537 2.62921 20.421 2.61546 20.5615C2.60032 20.7163 2.60385 20.9773 2.81326 21.1867C3.02267 21.3961 3.28373 21.3997 3.43846 21.3845C3.579 21.3708 3.74635 21.3289 3.90304 21.2896C3.91197 21.2874 3.92087 21.2852 3.92972 21.283L8.42999 20.1579C8.4451 20.1541 8.4601 20.1504 8.47498 20.1467C8.69773 20.0912 8.89491 20.0422 9.07395 19.9408C9.25299 19.8394 9.39652 19.6956 9.55865 19.5331C9.56949 19.5223 9.58041 19.5113 9.59142 19.5003L20.9393 8.15238L20.9626 8.12909C21.2761 7.8157 21.5461 7.54567 21.7333 7.30034C21.9339 7.03742 22.0858 6.745 22.0858 6.38462C22.0858 6.02423 21.9339 5.73181 21.7333 5.46889C21.5461 5.22356 21.276 4.95352 20.9626 4.64011L20.9393 4.61685L19.3832 3.06066L19.3599 3.03736C19.0465 2.72393 18.7764 2.45388 18.5311 2.2667C18.2682 2.0661 17.9758 1.91421 17.6154 1.91421C17.255 1.91421 16.9626 2.0661 16.6997 2.2667C16.4543 2.45388 16.1843 2.72395 15.8709 3.03738L15.8476 3.06066Z" stroke="#9E9E9E"/>
<path d="M13.9857 5.42744L17.6744 2.00379L22.5 6.49988L18.5 9.99988L13.9857 5.42744Z" fill="#9E9E9E"/>
</svg>
