<svg width="100" height="100" viewBox="0 0 100 100" fill="none" xmlns="http://www.w3.org/2000/svg">
<path d="M81.6267 66.2099C81.1038 66.2099 80.6103 66.0046 80.2421 65.6378L42.9372 28.4881C42.1712 27.7253 42.1712 26.4858 42.9372 25.723L44.344 24.3221C45.11 23.5593 46.3547 23.5593 47.1207 24.3221L84.4255 61.4718C84.7938 61.8385 85 62.3299 85 62.8507C85 63.3714 84.7938 63.8629 84.4255 64.2296L83.0188 65.6378C82.6505 66.0046 82.157 66.2099 81.6341 66.2099H81.6267ZM43.9757 27.454L81.2806 64.6037C81.4647 64.787 81.7888 64.787 81.9729 64.6037L83.387 63.1954C83.4754 63.1074 83.527 62.9827 83.527 62.8507C83.527 62.7187 83.4754 62.594 83.387 62.506L46.0822 25.3563C45.8981 25.1729 45.5813 25.1729 45.3899 25.3563L43.9757 26.7572C43.7916 26.9405 43.7916 27.2559 43.9757 27.4466V27.454Z" fill="black"/>
<path d="M32.4786 70.8307C29.4221 70.8307 26.638 70.0239 25.1281 68.5203C24.8409 68.2343 24.8409 67.7722 25.1281 67.4861C25.4154 67.2001 25.8794 67.2001 26.1666 67.4861C28.9507 70.2586 37.3102 70.1413 41.722 66.2319C46.5609 61.9412 45.272 54.5919 38.0836 45.5411C31.5874 37.3557 29.3631 31.4 31.4769 27.828C34.261 23.1266 43.3055 24.5495 43.6885 24.6155C44.0862 24.6815 44.3587 25.0556 44.2924 25.459C44.2261 25.855 43.8432 26.1264 43.4454 26.0604C43.3644 26.0457 35.0123 24.7328 32.7438 28.5688C31.5285 30.6298 31.6684 35.0819 39.2399 44.6242C49.6838 57.7825 45.8907 64.4936 42.7015 67.3175C39.9911 69.7159 36.0508 70.8234 32.4713 70.8234L32.4786 70.8307Z" fill="black"/>
<path d="M22.1747 75.8036C22.0274 75.8036 21.8727 75.7816 21.7107 75.7449C20.7826 75.4955 20.3702 74.586 20.0019 73.7866C19.8104 73.3612 19.6042 72.9211 19.3759 72.6937C19.1476 72.4663 18.7057 72.2683 18.2785 72.0703C17.4757 71.7035 16.5624 71.2928 16.312 70.3686C16.0542 69.4151 16.6508 68.5937 17.1811 67.8675C17.4462 67.5008 17.7187 67.1194 17.7997 66.8334C17.8734 66.5693 17.8218 66.1219 17.7776 65.6818C17.6819 64.8237 17.564 63.7455 18.2932 63.0267C19.0224 62.3006 20.0977 62.4179 20.9594 62.5133C21.394 62.5573 21.8432 62.6086 22.1158 62.5426C22.403 62.462 22.786 62.1906 23.1542 61.9265C23.8834 61.3984 24.7083 60.8043 25.6658 61.061C26.5938 61.3104 27.0063 62.2199 27.3745 63.0194C27.566 63.4448 27.7722 63.8849 28.0006 64.1122C28.2289 64.3396 28.6708 64.5376 29.098 64.7357C29.9008 65.1024 30.8141 65.5131 31.0645 66.4373C31.1676 66.826 30.9393 67.2294 30.5416 67.3321C30.1438 67.4421 29.7461 67.2074 29.643 66.8114C29.5767 66.5547 28.9728 66.2833 28.494 66.0632C27.949 65.8139 27.3819 65.5571 26.9621 65.1391C26.5423 64.721 26.2845 64.1562 26.0341 63.6135C25.8131 63.1294 25.5406 62.5353 25.2828 62.462C25.0029 62.3886 24.4505 62.7847 24.0086 63.1001C23.5299 63.4448 23.0364 63.7968 22.4914 63.9435C21.9611 64.0829 21.3719 64.0242 20.7974 63.9582C20.2155 63.8922 19.56 63.8262 19.3317 64.0462C19.1034 64.2736 19.177 64.9264 19.236 65.5058C19.2949 66.0706 19.3612 66.6647 19.2212 67.1928C19.0739 67.7429 18.7204 68.2343 18.3742 68.7037C18.0575 69.1438 17.6598 69.6939 17.7334 69.9726C17.7997 70.2293 18.4037 70.5007 18.8898 70.7207C19.4348 70.9701 20.0019 71.2268 20.4218 71.6375C20.8416 72.0556 21.0994 72.6204 21.3498 73.1631C21.5707 73.6472 21.8432 74.2413 22.101 74.3146C22.3809 74.3807 22.9333 73.9919 23.3752 73.6765C23.8539 73.3318 24.3474 72.9798 24.8924 72.8331C25.4227 72.6937 26.012 72.7524 26.5864 72.8184C27.1683 72.8844 27.8238 72.9504 28.0521 72.7304C28.3394 72.4443 28.8034 72.4443 29.0906 72.7304C29.3779 73.0164 29.3779 73.4785 29.0906 73.7646C28.3615 74.4907 27.2861 74.3733 26.4244 74.278C25.9899 74.234 25.5406 74.1826 25.2681 74.256C24.9808 74.3293 24.5978 74.608 24.2296 74.8721C23.6183 75.3121 22.9407 75.7962 22.1747 75.7962V75.8036Z" fill="black"/>
<path d="M81.6267 66.2099C81.1038 66.2099 80.6103 66.0046 80.2421 65.6378L42.9372 28.4881C42.1712 27.7253 42.1712 26.4858 42.9372 25.723L44.344 24.3221C45.11 23.5593 46.3547 23.5593 47.1207 24.3221L84.4255 61.4718C84.7938 61.8385 85 62.3299 85 62.8507C85 63.3714 84.7938 63.8629 84.4255 64.2296L83.0188 65.6378C82.6505 66.0046 82.157 66.2099 81.6341 66.2099H81.6267ZM43.9757 27.454L81.2806 64.6037C81.4647 64.787 81.7888 64.787 81.9729 64.6037L83.387 63.1954C83.4754 63.1074 83.527 62.9827 83.527 62.8507C83.527 62.7187 83.4754 62.594 83.387 62.506L46.0822 25.3563C45.8981 25.1729 45.5813 25.1729 45.3899 25.3563L43.9757 26.7572C43.7916 26.9405 43.7916 27.2559 43.9757 27.4466V27.454Z" stroke="black"/>
<path d="M32.4786 70.8307C29.4221 70.8307 26.638 70.0239 25.1281 68.5203C24.8409 68.2343 24.8409 67.7722 25.1281 67.4861C25.4154 67.2001 25.8794 67.2001 26.1666 67.4861C28.9507 70.2586 37.3102 70.1413 41.722 66.2319C46.5609 61.9412 45.272 54.5919 38.0836 45.5411C31.5874 37.3557 29.3631 31.4 31.4769 27.828C34.261 23.1266 43.3055 24.5495 43.6885 24.6155C44.0862 24.6815 44.3587 25.0556 44.2924 25.459C44.2261 25.855 43.8432 26.1264 43.4454 26.0604C43.3644 26.0457 35.0123 24.7328 32.7438 28.5688C31.5285 30.6298 31.6684 35.0819 39.2399 44.6242C49.6838 57.7825 45.8907 64.4936 42.7015 67.3175C39.9911 69.7159 36.0508 70.8234 32.4713 70.8234L32.4786 70.8307Z" stroke="black"/>
<path d="M22.1747 75.8036C22.0274 75.8036 21.8727 75.7816 21.7107 75.7449C20.7826 75.4955 20.3702 74.586 20.0019 73.7866C19.8104 73.3612 19.6042 72.9211 19.3759 72.6937C19.1476 72.4663 18.7057 72.2683 18.2785 72.0703C17.4757 71.7035 16.5624 71.2928 16.312 70.3686C16.0542 69.4151 16.6508 68.5937 17.1811 67.8675C17.4462 67.5008 17.7187 67.1194 17.7997 66.8334C17.8734 66.5693 17.8218 66.1219 17.7776 65.6818C17.6819 64.8237 17.564 63.7455 18.2932 63.0267C19.0224 62.3006 20.0977 62.4179 20.9594 62.5133C21.394 62.5573 21.8432 62.6086 22.1158 62.5426C22.403 62.462 22.786 62.1906 23.1542 61.9265C23.8834 61.3984 24.7083 60.8043 25.6658 61.061C26.5938 61.3104 27.0063 62.2199 27.3745 63.0194C27.566 63.4448 27.7722 63.8849 28.0006 64.1122C28.2289 64.3396 28.6708 64.5376 29.098 64.7357C29.9008 65.1024 30.8141 65.5131 31.0645 66.4373C31.1676 66.826 30.9393 67.2294 30.5416 67.3321C30.1438 67.4421 29.7461 67.2074 29.643 66.8114C29.5767 66.5547 28.9728 66.2833 28.494 66.0632C27.949 65.8139 27.3819 65.5571 26.9621 65.1391C26.5423 64.721 26.2845 64.1562 26.0341 63.6135C25.8131 63.1294 25.5406 62.5353 25.2828 62.462C25.0029 62.3886 24.4505 62.7847 24.0086 63.1001C23.5299 63.4448 23.0364 63.7968 22.4914 63.9435C21.9611 64.0829 21.3719 64.0242 20.7974 63.9582C20.2155 63.8922 19.56 63.8262 19.3317 64.0462C19.1034 64.2736 19.177 64.9264 19.236 65.5058C19.2949 66.0706 19.3612 66.6647 19.2212 67.1928C19.0739 67.7429 18.7204 68.2343 18.3742 68.7037C18.0575 69.1438 17.6598 69.6939 17.7334 69.9726C17.7997 70.2293 18.4037 70.5007 18.8898 70.7207C19.4348 70.9701 20.0019 71.2268 20.4218 71.6375C20.8416 72.0556 21.0994 72.6204 21.3498 73.1631C21.5707 73.6472 21.8432 74.2413 22.101 74.3146C22.3809 74.3807 22.9333 73.9919 23.3752 73.6765C23.8539 73.3318 24.3474 72.9798 24.8924 72.8331C25.4227 72.6937 26.012 72.7524 26.5864 72.8184C27.1683 72.8844 27.8238 72.9504 28.0521 72.7304C28.3394 72.4443 28.8034 72.4443 29.0906 72.7304C29.3779 73.0164 29.3779 73.4785 29.0906 73.7646C28.3615 74.4907 27.2861 74.3733 26.4244 74.278C25.9899 74.234 25.5406 74.1826 25.2681 74.256C24.9808 74.3293 24.5978 74.608 24.2296 74.8721C23.6183 75.3121 22.9407 75.7962 22.1747 75.7962V75.8036Z" stroke="black"/>
</svg>
