<svg width="273" height="154" viewBox="0 0 273 154" fill="none" xmlns="http://www.w3.org/2000/svg">
<path d="M161.409 39.491C161.064 39.5255 160.72 39.5599 160.342 39.5255C154.352 39.4222 148.397 39.0777 142.408 38.8711C121.377 38.1478 100.345 37.2868 79.3136 36.5636C54.1171 35.7026 25.8227 35.6337 10.3675 57.7446C2.62266 68.8 2.20961 87.8802 7.68261 99.8655C13.0868 111.679 23.1722 116.604 36.1491 121.15C42.2417 123.285 48.0245 122.665 54.2548 123.388C60.1408 124.077 65.958 124.663 71.9818 124.869C86.4044 125.42 100.827 125.696 115.25 125.834C119.724 125.868 124.233 125.834 128.708 125.834C132.288 125.868 135.902 125.937 139.482 125.972C148.328 126.075 157.175 126.144 166.021 126.35C177.07 126.591 188.154 126.557 199.203 126.867C209.599 127.143 249.975 128.933 252.384 126.144C253.555 124.766 253.968 123.079 254.071 121.425C254.312 116.431 254.002 112.574 250.353 108.579C246.498 104.343 241.886 101.243 236.378 99.3833" fill="white"/>
<path d="M161.409 39.491C161.064 39.5255 160.72 39.5599 160.342 39.5255C154.352 39.4222 148.397 39.0777 142.408 38.8711C121.377 38.1478 100.345 37.2868 79.3136 36.5636C54.1171 35.7026 25.8227 35.6337 10.3675 57.7446C2.62266 68.8 2.20961 87.8802 7.68261 99.8655C13.0868 111.679 23.1722 116.604 36.1491 121.15C42.2417 123.285 48.0245 122.665 54.2548 123.388C60.1408 124.077 65.958 124.663 71.9818 124.869C86.4044 125.42 100.827 125.696 115.25 125.834C119.724 125.868 124.233 125.834 128.708 125.834C132.288 125.868 135.902 125.937 139.482 125.972C148.328 126.075 157.175 126.144 166.021 126.35C177.07 126.591 188.154 126.557 199.203 126.867C209.599 127.143 249.975 128.933 252.384 126.144C253.555 124.766 253.968 123.079 254.071 121.425C254.312 116.431 254.002 112.574 250.353 108.579C246.498 104.343 241.886 101.243 236.378 99.3833" stroke="#DADADA" stroke-width="7" stroke-linecap="round" stroke-linejoin="round"/>
<path d="M162.234 48.6867C168.671 47.8946 174.041 39.0778 182.061 34.2905C182.061 34.2905 219.89 36.047 224.09 39.801C228.289 43.5895 242.264 64.1161 242.264 64.1161C242.264 64.1161 266.256 65.5971 268.39 69.0756C269.388 70.6943 268.597 73.8284 268.39 75.516C267.908 79.5111 266.979 83.334 265.636 87.1225C262.917 94.8716 257.685 102.483 250.938 107.374L247.462 110.301" fill="white"/>
<path d="M162.234 48.6867C168.671 47.8946 174.041 39.0778 182.061 34.2905C182.061 34.2905 219.89 36.047 224.09 39.801C228.289 43.5895 242.264 64.1161 242.264 64.1161C242.264 64.1161 266.256 65.5971 268.39 69.0756C269.388 70.6943 268.597 73.8284 268.39 75.516C267.908 79.5111 266.979 83.334 265.636 87.1225C262.917 94.8716 257.685 102.483 250.938 107.374L247.462 110.301" stroke="#DADADA" stroke-width="7" stroke-linecap="round" stroke-linejoin="round"/>
<path d="M205.174 40.4202C202.283 34.8064 183.971 8.04601 176.054 4.25753C168.137 0.469062 172.543 39.7314 172.543 39.7314" fill="white"/>
<path d="M205.174 40.4202C202.283 34.8064 183.971 8.04601 176.054 4.25753C168.137 0.469062 172.543 39.7314 172.543 39.7314" stroke="#DADADA" stroke-width="7" stroke-linecap="round" stroke-linejoin="round"/>
<path d="M266.057 73.6287C265.876 74.2674 265.652 74.9386 265.4 75.6204L263.403 70.0103C264.614 70.2386 265.579 70.545 266.194 70.8852C266.34 70.9658 266.438 71.0311 266.501 71.0788C266.511 71.5588 266.403 72.4016 266.057 73.6287ZM266.603 71.1717C266.602 71.1718 266.594 71.1639 266.582 71.1472C266.599 71.1631 266.604 71.1715 266.603 71.1717Z" fill="#9E9E9E" stroke="#DADADA" stroke-width="7"/>
<path d="M171.235 71.0131L170.064 35.6081C169.961 30.6831 166.588 26.7568 162.56 26.8601L157.982 26.929C153.921 26.9979 150.719 31.0619 150.823 35.9525L151.718 56.858C157.397 58.5111 164.178 62.3685 171.235 71.0131Z" fill="#43ADFF" stroke="#43ADFF" stroke-width="7" stroke-linecap="round" stroke-linejoin="round"/>
<path d="M73.0312 52.5095C73.0312 52.5095 114.957 54.266 103.666 95.6637L100.362 104.343C100.362 104.343 127.52 97.4546 129.345 125.248" fill="white"/>
<path d="M73.0312 52.5095C73.0312 52.5095 114.957 54.266 103.666 95.6637L100.362 104.343C100.362 104.343 127.52 97.4546 129.345 125.248" stroke="#DADADA" stroke-width="7" stroke-linecap="round" stroke-linejoin="round"/>
<path d="M150.664 59.8804C150.664 59.8804 187.839 73.3122 177.547 102.277L225.083 104.378C225.083 104.378 254.41 97.3174 253.309 122.493" fill="white"/>
<path d="M150.664 59.8804C150.664 59.8804 187.839 73.3122 177.547 102.277L225.083 104.378C225.083 104.378 254.41 97.3174 253.309 122.493" stroke="#DADADA" stroke-width="7" stroke-linecap="round" stroke-linejoin="round"/>
<path d="M6.20312 92.9082C9.71411 125.489 46.3041 145.534 75.8721 149.873C89.0555 151.802 89.8127 131.137 76.8014 129.243C61.5872 127.004 34.8762 115.605 28.1984 98.7976" fill="white"/>
<path d="M6.20312 92.9082C9.71411 125.489 46.3041 145.534 75.8721 149.873C89.0554 151.802 89.8127 131.137 76.8014 129.243C61.5872 127.004 34.8762 115.605 28.1984 98.7976" stroke="#DADADA" stroke-width="7" stroke-linecap="round" stroke-linejoin="round"/>
<ellipse cx="223.646" cy="66.5025" rx="4.99741" ry="3.21442" fill="#D9D9D9"/>
</svg>
