<svg width="100" height="100" viewBox="0 0 100 100" fill="none" xmlns="http://www.w3.org/2000/svg">
<path d="M49.8824 78C35.8065 78 24.3497 66.5432 24.3497 52.4673C24.3497 49.9726 24.7082 47.5144 25.4178 45.1513L24.8837 22.7572C24.8837 22.4938 25.0154 22.2524 25.2349 22.1134C25.4617 21.9744 25.7397 21.9744 25.9665 22.0988L39.0109 29.3635C42.4201 27.754 46.0781 26.9419 49.8824 26.9419C53.6867 26.9419 57.33 27.754 60.7319 29.3562L73.4398 22.0988C73.6665 21.9671 73.9446 21.9671 74.1713 22.0988C74.3981 22.2305 74.5371 22.4719 74.5298 22.7353L74.3469 45.1367C75.0566 47.5071 75.4151 49.9653 75.4151 52.46C75.4151 66.5359 63.9583 77.9927 49.8824 77.9927V78ZM26.3689 23.9936L26.881 45.2318C26.881 45.3123 26.8737 45.3855 26.8517 45.4586C26.164 47.7193 25.8129 50.075 25.8129 52.4673C25.8129 65.7385 36.6112 76.5368 49.8824 76.5368C63.1535 76.5368 73.9519 65.7385 73.9519 52.4673C73.9519 50.0823 73.6007 47.7193 72.913 45.4586C72.8911 45.3855 72.8837 45.3123 72.8837 45.2391L73.0593 24.0009L61.1197 30.8121C60.9075 30.9291 60.6515 30.9364 60.4393 30.834C57.1398 29.2172 53.5842 28.4051 49.8824 28.4051C46.1805 28.4051 42.6176 29.2245 39.3035 30.8487C39.0913 30.9584 38.8353 30.9511 38.6231 30.834L26.3689 23.9936Z" fill="black"/>
<path d="M41.9885 49.1605C41.9885 50.4042 40.9788 51.4138 39.7351 51.4138C38.4914 51.4138 37.4818 50.4042 37.4818 49.1605C37.4818 47.9168 38.4914 46.9072 39.7351 46.9072C40.9788 46.9072 41.9885 47.9168 41.9885 49.1605Z" fill="black"/>
<path d="M62.2829 49.1605C62.2829 50.4042 61.2733 51.4138 60.0296 51.4138C58.7859 51.4138 57.7763 50.4042 57.7763 49.1605C57.7763 47.9168 58.7859 46.9072 60.0296 46.9072C61.2733 46.9072 62.2829 47.9168 62.2829 49.1605Z" fill="black"/>
<path d="M44.8124 66.3018C41.6153 66.3018 39.0109 63.6973 39.0109 60.5002C39.0109 60.0979 39.3401 59.7686 39.7425 59.7686C40.1448 59.7686 40.474 60.0979 40.474 60.5002C40.474 62.8925 42.4201 64.8386 44.8124 64.8386C47.2047 64.8386 49.1508 62.8925 49.1508 60.5002C49.1508 60.0979 49.48 59.7686 49.8824 59.7686C50.2847 59.7686 50.614 60.0979 50.614 60.5002C50.614 63.6973 48.0095 66.3018 44.8124 66.3018Z" fill="black"/>
<path d="M54.9596 66.3018C51.7626 66.3018 49.1581 63.6973 49.1581 60.5002C49.1581 60.0979 49.4873 59.7686 49.8897 59.7686C50.2921 59.7686 50.6213 60.0979 50.6213 60.5002C50.6213 62.8925 52.5673 64.8386 54.9596 64.8386C57.352 64.8386 59.298 62.8925 59.298 60.5002C59.298 60.0979 59.6272 59.7686 60.0296 59.7686C60.432 59.7686 60.7612 60.0979 60.7612 60.5002C60.7612 63.6973 58.1567 66.3018 54.9596 66.3018Z" fill="black"/>
<path d="M49.9263 61.2245C49.3337 61.2245 48.7338 61.005 48.1924 60.5661L46.7146 59.2273C46.6707 59.1907 46.6414 59.1468 46.6048 59.1029C46.122 58.4152 46.0708 57.53 46.4585 56.7837C46.8462 56.0375 47.6071 55.5766 48.4484 55.5766H51.3309C52.1649 55.5766 52.9331 56.0375 53.3209 56.7837C53.7086 57.53 53.6501 58.4152 53.1746 59.1029C53.1453 59.1468 53.1087 59.1907 53.0648 59.2273L51.6236 60.5368C51.1261 60.9977 50.5408 61.2245 49.9336 61.2245H49.9263ZM47.7681 58.2103L49.1435 59.4614C49.6483 59.8637 50.1823 59.8784 50.6286 59.4614L52.004 58.2103C52.1357 57.9762 52.143 57.7055 52.0186 57.4641C51.8796 57.2007 51.6236 57.0471 51.3309 57.0471H48.4484C48.1558 57.0471 47.8924 57.2007 47.7607 57.4641C47.6364 57.7055 47.6437 57.9762 47.7754 58.2103H47.7681Z" fill="black"/>
<path d="M29.8952 37.038C29.7854 37.038 29.6684 37.0087 29.566 36.9575C29.3318 36.8404 29.1782 36.6063 29.1636 36.3429L28.7685 28.9977C28.7539 28.7343 28.8856 28.4783 29.105 28.3393C29.3318 28.2003 29.6098 28.1856 29.844 28.31L36.1869 31.7339C36.4137 31.8583 36.56 32.085 36.5673 32.3484C36.582 32.6045 36.4503 32.8532 36.2381 32.9922L30.2902 36.9136C30.1659 36.9941 30.0269 37.0306 29.8879 37.0306L29.8952 37.038ZM30.2975 30.2268L30.5536 34.9968L34.4164 32.4508L30.2975 30.2268Z" fill="black"/>
<path d="M69.8696 37.038C69.7306 37.038 69.5916 36.9941 69.4672 36.9209L63.5193 32.9995C63.3071 32.8605 63.1828 32.6118 63.1901 32.3557C63.2047 32.0997 63.3437 31.8656 63.5705 31.7412L69.9135 28.3173C70.1476 28.193 70.4256 28.2003 70.6524 28.3466C70.8792 28.4856 71.0035 28.7417 70.9889 29.005L70.5938 36.3503C70.5792 36.6136 70.4256 36.8477 70.1915 36.9648C70.089 37.016 69.972 37.0453 69.8622 37.0453L69.8696 37.038ZM65.3483 32.4508L69.2111 34.9968L69.4672 30.2268L65.3483 32.4508Z" fill="black"/>
<path d="M33.5093 56.6155C33.5093 56.6155 33.458 56.6155 33.4288 56.6155L17.6483 54.8523C17.2459 54.8084 16.9606 54.4426 17.0045 54.0476C17.0484 53.6452 17.4141 53.3525 17.8092 53.4037L33.5897 55.1596C33.9921 55.2035 34.2774 55.5693 34.2335 55.9643C34.1896 56.3374 33.8751 56.6155 33.5093 56.6155Z" fill="black"/>
<path d="M17.7287 62.439C17.3629 62.439 17.041 62.161 17.0045 61.7878C16.9606 61.3855 17.2459 61.027 17.6483 60.9831L33.4288 59.2273C33.8238 59.1834 34.1896 59.4687 34.2335 59.8711C34.2774 60.2734 33.9921 60.6319 33.5897 60.6758L17.8092 62.4316C17.8092 62.4316 17.758 62.4316 17.7287 62.4316V62.439Z" fill="black"/>
<path d="M65.7653 56.6155C65.3995 56.6155 65.0776 56.3374 65.041 55.9643C64.9971 55.562 65.2825 55.2035 65.6848 55.1596L81.4654 53.4037C81.8677 53.3525 82.2262 53.6452 82.2701 54.0476C82.314 54.4499 82.0287 54.8084 81.6263 54.8523L65.8458 56.6081C65.8458 56.6081 65.7946 56.6081 65.7653 56.6081V56.6155Z" fill="black"/>
<path d="M81.5385 62.439C81.5385 62.439 81.4873 62.439 81.458 62.439L65.6775 60.6831C65.2751 60.6392 64.9898 60.2734 65.0337 59.8784C65.0776 59.476 65.4434 59.1834 65.8385 59.2346L81.619 60.9904C82.0214 61.0343 82.3067 61.4001 82.2628 61.7952C82.2189 62.1683 81.9043 62.4463 81.5385 62.4463V62.439Z" fill="black"/>
<path d="M49.8824 78C35.8065 78 24.3497 66.5432 24.3497 52.4673C24.3497 49.9726 24.7082 47.5144 25.4178 45.1513L24.8837 22.7572C24.8837 22.4938 25.0154 22.2524 25.2349 22.1134C25.4617 21.9744 25.7397 21.9744 25.9665 22.0988L39.0109 29.3635C42.4201 27.754 46.0781 26.9419 49.8824 26.9419C53.6867 26.9419 57.33 27.754 60.7319 29.3562L73.4398 22.0988C73.6665 21.9671 73.9446 21.9671 74.1713 22.0988C74.3981 22.2305 74.5371 22.4719 74.5298 22.7353L74.3469 45.1367C75.0566 47.5071 75.4151 49.9653 75.4151 52.46C75.4151 66.5359 63.9583 77.9927 49.8824 77.9927V78ZM26.3689 23.9936L26.881 45.2318C26.881 45.3123 26.8737 45.3855 26.8517 45.4586C26.164 47.7193 25.8129 50.075 25.8129 52.4673C25.8129 65.7385 36.6112 76.5368 49.8824 76.5368C63.1535 76.5368 73.9519 65.7385 73.9519 52.4673C73.9519 50.0823 73.6007 47.7193 72.913 45.4586C72.8911 45.3855 72.8837 45.3123 72.8837 45.2391L73.0593 24.0009L61.1197 30.8121C60.9075 30.9291 60.6515 30.9364 60.4393 30.834C57.1398 29.2172 53.5842 28.4051 49.8824 28.4051C46.1805 28.4051 42.6176 29.2245 39.3035 30.8487C39.0913 30.9584 38.8353 30.9511 38.6231 30.834L26.3689 23.9936Z" stroke="black"/>
<path d="M41.9885 49.1605C41.9885 50.4042 40.9788 51.4138 39.7351 51.4138C38.4914 51.4138 37.4818 50.4042 37.4818 49.1605C37.4818 47.9168 38.4914 46.9072 39.7351 46.9072C40.9788 46.9072 41.9885 47.9168 41.9885 49.1605Z" stroke="black"/>
<path d="M62.2829 49.1605C62.2829 50.4042 61.2733 51.4138 60.0296 51.4138C58.7859 51.4138 57.7763 50.4042 57.7763 49.1605C57.7763 47.9168 58.7859 46.9072 60.0296 46.9072C61.2733 46.9072 62.2829 47.9168 62.2829 49.1605Z" stroke="black"/>
<path d="M44.8124 66.3018C41.6153 66.3018 39.0109 63.6973 39.0109 60.5002C39.0109 60.0979 39.3401 59.7686 39.7425 59.7686C40.1448 59.7686 40.474 60.0979 40.474 60.5002C40.474 62.8925 42.4201 64.8386 44.8124 64.8386C47.2047 64.8386 49.1508 62.8925 49.1508 60.5002C49.1508 60.0979 49.48 59.7686 49.8824 59.7686C50.2847 59.7686 50.614 60.0979 50.614 60.5002C50.614 63.6973 48.0095 66.3018 44.8124 66.3018Z" stroke="black"/>
<path d="M54.9596 66.3018C51.7626 66.3018 49.1581 63.6973 49.1581 60.5002C49.1581 60.0979 49.4873 59.7686 49.8897 59.7686C50.2921 59.7686 50.6213 60.0979 50.6213 60.5002C50.6213 62.8925 52.5673 64.8386 54.9596 64.8386C57.352 64.8386 59.298 62.8925 59.298 60.5002C59.298 60.0979 59.6272 59.7686 60.0296 59.7686C60.432 59.7686 60.7612 60.0979 60.7612 60.5002C60.7612 63.6973 58.1567 66.3018 54.9596 66.3018Z" stroke="black"/>
<path d="M49.9263 61.2245C49.3337 61.2245 48.7338 61.005 48.1924 60.5661L46.7146 59.2273C46.6707 59.1907 46.6414 59.1468 46.6048 59.1029C46.122 58.4152 46.0708 57.53 46.4585 56.7837C46.8462 56.0375 47.6071 55.5766 48.4484 55.5766H51.3309C52.1649 55.5766 52.9331 56.0375 53.3209 56.7837C53.7086 57.53 53.6501 58.4152 53.1746 59.1029C53.1453 59.1468 53.1087 59.1907 53.0648 59.2273L51.6236 60.5368C51.1261 60.9977 50.5408 61.2245 49.9336 61.2245H49.9263ZM47.7681 58.2103L49.1435 59.4614C49.6483 59.8637 50.1823 59.8784 50.6286 59.4614L52.004 58.2103C52.1357 57.9762 52.143 57.7055 52.0186 57.4641C51.8796 57.2007 51.6236 57.0471 51.3309 57.0471H48.4484C48.1558 57.0471 47.8924 57.2007 47.7607 57.4641C47.6364 57.7055 47.6437 57.9762 47.7754 58.2103H47.7681Z" stroke="black"/>
<path d="M29.8952 37.038C29.7854 37.038 29.6684 37.0087 29.566 36.9575C29.3318 36.8404 29.1782 36.6063 29.1636 36.3429L28.7685 28.9977C28.7539 28.7343 28.8856 28.4783 29.105 28.3393C29.3318 28.2003 29.6098 28.1856 29.844 28.31L36.1869 31.7339C36.4137 31.8583 36.56 32.085 36.5673 32.3484C36.582 32.6045 36.4503 32.8532 36.2381 32.9922L30.2902 36.9136C30.1659 36.9941 30.0269 37.0306 29.8879 37.0306L29.8952 37.038ZM30.2975 30.2268L30.5536 34.9968L34.4164 32.4508L30.2975 30.2268Z" stroke="black"/>
<path d="M69.8696 37.038C69.7306 37.038 69.5916 36.9941 69.4672 36.9209L63.5193 32.9995C63.3071 32.8605 63.1828 32.6118 63.1901 32.3557C63.2047 32.0997 63.3437 31.8656 63.5705 31.7412L69.9135 28.3173C70.1476 28.193 70.4256 28.2003 70.6524 28.3466C70.8792 28.4856 71.0035 28.7417 70.9889 29.005L70.5938 36.3503C70.5792 36.6136 70.4256 36.8477 70.1915 36.9648C70.089 37.016 69.972 37.0453 69.8622 37.0453L69.8696 37.038ZM65.3483 32.4508L69.2111 34.9968L69.4672 30.2268L65.3483 32.4508Z" stroke="black"/>
<path d="M33.5093 56.6155C33.5093 56.6155 33.458 56.6155 33.4288 56.6155L17.6483 54.8523C17.2459 54.8084 16.9606 54.4426 17.0045 54.0476C17.0484 53.6452 17.4141 53.3525 17.8092 53.4037L33.5897 55.1596C33.9921 55.2035 34.2774 55.5693 34.2335 55.9643C34.1896 56.3374 33.8751 56.6155 33.5093 56.6155Z" stroke="black"/>
<path d="M17.7287 62.439C17.3629 62.439 17.041 62.161 17.0045 61.7878C16.9606 61.3855 17.2459 61.027 17.6483 60.9831L33.4288 59.2273C33.8238 59.1834 34.1896 59.4687 34.2335 59.8711C34.2774 60.2734 33.9921 60.6319 33.5897 60.6758L17.8092 62.4316C17.8092 62.4316 17.758 62.4316 17.7287 62.4316V62.439Z" stroke="black"/>
<path d="M65.7653 56.6155C65.3995 56.6155 65.0776 56.3374 65.041 55.9643C64.9971 55.562 65.2825 55.2035 65.6848 55.1596L81.4654 53.4037C81.8677 53.3525 82.2262 53.6452 82.2701 54.0476C82.314 54.4499 82.0287 54.8084 81.6263 54.8523L65.8458 56.6081C65.8458 56.6081 65.7946 56.6081 65.7653 56.6081V56.6155Z" stroke="black"/>
<path d="M81.5385 62.439C81.5385 62.439 81.4873 62.439 81.458 62.439L65.6775 60.6831C65.2751 60.6392 64.9898 60.2734 65.0337 59.8784C65.0776 59.476 65.4434 59.1834 65.8385 59.2346L81.619 60.9904C82.0214 61.0343 82.3067 61.4001 82.2628 61.7952C82.2189 62.1683 81.9043 62.4463 81.5385 62.4463V62.439Z" stroke="black"/>
</svg>
