<svg width="32" height="32" viewBox="0 0 32 32" fill="none" xmlns="http://www.w3.org/2000/svg">
<path d="M25.7685 7.70362L26.6 7.14805L26.6 7.14805L25.7685 7.70362ZM25.7685 21.6297L26.6 22.1853L26.6 22.1853L25.7685 21.6297ZM24.297 23.1012L23.7415 22.2697L23.7415 22.2697L24.297 23.1012ZM18.6673 23.9982L18.663 22.9982C18.1124 23.0006 17.6673 23.4476 17.6673 23.9982H18.6673ZM18.6673 24L19.5617 24.4472C19.6312 24.3084 19.6673 24.1552 19.6673 24H18.6673ZM16.8951 27.5445L17.7895 27.9917L17.7895 27.9917L16.8951 27.5445ZM15.1062 27.5445L14.2118 27.9917L14.2118 27.9917L15.1062 27.5445ZM13.334 24H12.334C12.334 24.1552 12.3701 24.3084 12.4396 24.4472L13.334 24ZM13.334 23.9982H14.334C14.334 23.4476 13.8889 23.0006 13.3383 22.9982L13.334 23.9982ZM7.70428 23.1012L8.25985 22.2697L8.25985 22.2697L7.70428 23.1012ZM6.23281 21.6297L7.06428 21.0741L7.06428 21.0741L6.23281 21.6297ZM6.23281 7.70362L7.06428 8.25919L7.06428 8.25919L6.23281 7.70362ZM7.70428 6.23216L8.25985 7.06363L8.25985 7.06363L7.70428 6.23216ZM24.297 6.23216L23.7415 7.06363L23.7415 7.06363L24.297 6.23216ZM27.6673 14.6667C27.6673 12.8149 27.6685 11.3507 27.5498 10.1839C27.4294 9.00039 27.1775 8.01234 26.6 7.14805L24.937 8.25919C25.2583 8.74009 25.4558 9.36094 25.5601 10.3863C25.6661 11.4284 25.6673 12.7732 25.6673 14.6667H27.6673ZM26.6 22.1853C27.1775 21.321 27.4294 20.3329 27.5498 19.1494C27.6685 17.9826 27.6673 16.5185 27.6673 14.6667H25.6673C25.6673 16.5601 25.6661 17.9049 25.5601 18.947C25.4558 19.9724 25.2583 20.5932 24.937 21.0741L26.6 22.1853ZM24.8526 23.9326C25.5441 23.4706 26.1379 22.8768 26.6 22.1853L24.937 21.0741C24.6209 21.5473 24.2146 21.9535 23.7415 22.2697L24.8526 23.9326ZM18.6717 24.9982C20.1054 24.9919 21.2817 24.9649 22.2573 24.83C23.249 24.6929 24.0977 24.437 24.8526 23.9326L23.7415 22.2697C23.3212 22.5505 22.7936 22.7368 21.9834 22.8488C21.1572 22.963 20.1062 22.9919 18.663 22.9982L18.6717 24.9982ZM19.6673 24V23.9982H17.6673V24H19.6673ZM17.7895 27.9917L19.5617 24.4472L17.7729 23.5528L16.0007 27.0973L17.7895 27.9917ZM14.2118 27.9917C14.9488 29.4658 17.0525 29.4658 17.7895 27.9917L16.0007 27.0973L16.0007 27.0973L14.2118 27.9917ZM12.4396 24.4472L14.2118 27.9917L16.0007 27.0973L14.2284 23.5528L12.4396 24.4472ZM12.334 23.9982V24H14.334V23.9982H12.334ZM7.14871 23.9326C7.90359 24.437 8.75235 24.6929 9.74403 24.83C10.7196 24.9649 11.8959 24.9919 13.3296 24.9982L13.3383 22.9982C11.8951 22.9919 10.8441 22.963 10.0179 22.8488C9.20773 22.7368 8.6801 22.5505 8.25985 22.2697L7.14871 23.9326ZM5.40134 22.1853C5.86341 22.8768 6.45717 23.4706 7.14871 23.9326L8.25985 22.2697C7.78669 21.9535 7.38044 21.5473 7.06428 21.0741L5.40134 22.1853ZM4.33398 14.6667C4.33398 16.5185 4.33278 17.9826 4.45147 19.1494C4.57187 20.3329 4.82384 21.321 5.40134 22.1853L7.06428 21.0741C6.74296 20.5932 6.54551 19.9724 6.4412 18.947C6.33519 17.9049 6.33398 16.5601 6.33398 14.6667H4.33398ZM5.40134 7.14805C4.82384 8.01234 4.57187 9.00039 4.45147 10.1839C4.33278 11.3507 4.33398 12.8149 4.33398 14.6667H6.33398C6.33398 12.7732 6.33519 11.4284 6.4412 10.3863C6.54551 9.36094 6.74296 8.74009 7.06428 8.25919L5.40134 7.14805ZM7.14871 5.40069C6.45717 5.86276 5.86341 6.45651 5.40134 7.14805L7.06428 8.25919C7.38044 7.78603 7.78669 7.37978 8.25985 7.06363L7.14871 5.40069ZM14.6673 4.33333C12.8155 4.33333 11.3514 4.33212 10.1846 4.45082C9.00105 4.57121 8.013 4.82319 7.14871 5.40069L8.25985 7.06363C8.74075 6.7423 9.3616 6.54486 10.387 6.44055C11.4291 6.33454 12.7739 6.33333 14.6673 6.33333V4.33333ZM17.334 4.33333H14.6673V6.33333H17.334V4.33333ZM24.8526 5.40069C23.9883 4.82319 23.0003 4.57121 21.8167 4.45082C20.6499 4.33212 19.1858 4.33333 17.334 4.33333V6.33333C19.2274 6.33333 20.5722 6.33454 21.6143 6.44055C22.6397 6.54486 23.2606 6.7423 23.7415 7.06363L24.8526 5.40069ZM26.6 7.14805C26.1379 6.45651 25.5441 5.86276 24.8526 5.40069L23.7415 7.06363C24.2146 7.37978 24.6209 7.78603 24.937 8.25919L26.6 7.14805Z" fill="#33363F"/>
<circle cx="21.3333" cy="14.6667" r="1.33333" fill="#33363F" stroke="#33363F" stroke-linecap="round"/>
<circle cx="15.9993" cy="14.6667" r="1.33333" fill="#33363F" stroke="#33363F" stroke-linecap="round"/>
<circle cx="10.6673" cy="14.6667" r="1.33333" fill="#33363F" stroke="#33363F" stroke-linecap="round"/>
</svg>
