<svg width="274" height="154" viewBox="0 0 274 154" fill="none" xmlns="http://www.w3.org/2000/svg">
<path d="M218.508 111.98C220.881 111.98 264.523 114.091 269.935 135.605C272.309 145.054 209.805 141.117 209.805 141.117" fill="#43ADFF"/>
<path d="M218.508 111.98C220.881 111.98 264.523 114.091 269.935 135.605C272.309 145.054 209.805 141.117 209.805 141.117" stroke="#DADADA" stroke-width="7" stroke-linecap="round" stroke-linejoin="round"/>
<path d="M10.295 78.4974C12.0356 63.126 16.0232 47.786 21.7514 33.391C26.0555 22.5554 43.7782 27.3117 39.4424 38.2734C34.3788 51.0619 30.233 64.9529 28.6822 78.6864C27.353 90.2465 8.99741 90.215 10.3266 78.4974H10.295Z" fill="white" stroke="#DADADA" stroke-width="7" stroke-linecap="round" stroke-linejoin="round"/>
<path d="M105.055 141.212L224.842 141.999C224.842 141.999 230.665 118.659 224.335 118.659C218.006 118.659 199.334 116.611 199.334 116.611L172.623 107.256L163.73 92.2941L126.323 55.5034C124.962 56.9524 123.601 58.3383 122.303 59.6928L113.569 62.6852C109.359 64.3546 34.133 62.6852 34.133 62.6852C7.1376 68.5439 4.57414 94.625 4.57414 94.625C3.27659 108.012 3.62471 119.383 11.5683 131.258C10.5555 129.715 7.45408 133.589 7.01101 134.345C5.01721 137.936 4.85897 144.96 9.35293 146.882C16.7268 150.032 72.6482 149.496 72.6482 149.496L105.34 150V145.811C107.461 124.801 82.1425 130.061 82.1425 130.061C81.0981 110.122 51.5392 103.823 46.2857 103.823" fill="white"/>
<path d="M105.055 141.212L224.842 141.999C224.842 141.999 230.665 118.659 224.335 118.659C218.006 118.659 199.334 116.611 199.334 116.611L172.623 107.256L163.73 92.2941L126.323 55.5034C124.962 56.9524 123.601 58.3383 122.303 59.6928L113.569 62.6852C109.359 64.3546 34.133 62.6852 34.133 62.6852C7.1376 68.5439 4.57414 94.625 4.57414 94.625C3.27659 108.012 3.62471 119.383 11.5683 131.258C10.5555 129.715 7.45408 133.589 7.01101 134.345C5.01721 137.936 4.85897 144.96 9.35293 146.882C16.7268 150.032 72.6482 149.496 72.6482 149.496L105.34 150V145.811C107.461 124.801 82.1425 130.061 82.1425 130.061C81.0981 110.122 51.5392 103.823 46.2857 103.823" stroke="#DADADA" stroke-width="7" stroke-linecap="round" stroke-linejoin="round"/>
<path d="M190.821 19.8465C214.557 21.4215 220.095 50.5579 221.678 63.1575C223.26 75.757 214.557 93.0814 214.557 93.0814L216.456 118.627L185.441 114.942L158.383 100.956L122.336 59.6926C122.336 59.6926 167.086 18.2716 190.821 19.8465Z" fill="white" stroke="#DADADA" stroke-width="7" stroke-linecap="round" stroke-linejoin="round"/>
<path d="M182.906 20.634C182.906 20.634 214.554 2.52212 229.587 4.09707C239.397 5.13653 210.946 53.0463 210.946 53.0463" fill="white"/>
<path d="M182.906 20.634C182.906 20.634 214.554 2.52212 229.587 4.09707C239.397 5.13653 210.946 53.0463 210.946 53.0463" stroke="#DADADA" stroke-width="7" stroke-linecap="round" stroke-linejoin="round"/>
<path d="M169.959 106.815C170.212 105.051 169.801 103.067 168.725 101.271L136.697 49.1407C134.482 45.5499 130.273 44.1009 127.298 45.8963L123.912 47.9438C120.937 49.7707 120.304 54.149 122.519 57.7399L149.261 101.303C154.641 101.492 162.363 102.626 169.959 106.815Z" fill="#43ADFF" stroke="#43ADFF" stroke-width="7" stroke-linecap="round" stroke-linejoin="round"/>
<path d="M198.727 93.0813L208.221 85.2065" stroke="#DADADA" stroke-width="7" stroke-linecap="round" stroke-linejoin="round"/>
<path d="M243.03 140.33C243.03 140.33 242.239 117.493 254.107 115.918C254.107 115.918 236.701 100.956 220.086 106.469C220.086 106.469 209.009 118.281 216.13 140.33H243.03Z" fill="#43ADFF" stroke="#DADADA" stroke-width="7" stroke-linecap="round" stroke-linejoin="round"/>
</svg>
