<svg width="16" height="17" viewBox="0 0 16 17" fill="none" xmlns="http://www.w3.org/2000/svg">
<g id="fluent:eye-12-filled">
<path id="Vector" d="M2.63251 9.16372C2.57282 9.32312 2.45195 9.45348 2.29558 9.52709C2.13921 9.6007 1.95967 9.61176 1.79509 9.55792C1.63052 9.50409 1.49389 9.3896 1.41423 9.23878C1.33457 9.08796 1.31817 8.9127 1.36851 8.75024C1.39221 8.67843 1.41981 8.60659 1.45117 8.53763C1.50451 8.41372 1.58317 8.24285 1.69117 8.04068C1.91117 7.63633 2.25384 7.09764 2.75917 6.55894C3.77917 5.46981 5.44984 4.39111 8.00051 4.39111C10.5512 4.39111 12.2218 5.46981 13.2418 6.55894C13.7863 7.14326 14.2278 7.8119 14.5485 8.53763L14.6098 8.68503C14.6138 8.69546 14.6272 8.76329 14.6405 8.8285L14.6672 8.95633C14.6672 8.95633 14.7792 9.39068 14.2112 9.57459C14.0439 9.62924 13.8613 9.61682 13.7034 9.54006C13.5454 9.4633 13.425 9.32844 13.3685 9.16503V9.16111L13.3605 9.14024C13.2935 8.97269 13.217 8.80895 13.1312 8.64981C12.8941 8.21222 12.6011 7.80592 12.2592 7.44068C11.4458 6.57329 10.1165 5.69546 8.00051 5.69546C5.88451 5.69546 4.55517 6.57329 3.74184 7.44068C3.30149 7.91294 2.9434 8.45273 2.68184 9.03851C2.66785 9.07217 2.65451 9.10609 2.64184 9.14024L2.63251 9.16372ZM5.33384 9.6085C5.33384 8.91664 5.61479 8.2531 6.11489 7.76388C6.61498 7.27465 7.29326 6.99981 8.00051 6.99981C8.70775 6.99981 9.38603 7.27465 9.88612 7.76388C10.3862 8.2531 10.6672 8.91664 10.6672 9.6085C10.6672 10.3004 10.3862 10.9639 9.88612 11.4531C9.38603 11.9424 8.70775 12.2172 8.00051 12.2172C7.29326 12.2172 6.61498 11.9424 6.11489 11.4531C5.61479 10.9639 5.33384 10.3004 5.33384 9.6085Z" fill="#9E9E9E"/>
</g>
</svg>
