<svg width="14" height="13" viewBox="0 0 14 13" fill="none" xmlns="http://www.w3.org/2000/svg">
<path id="Vector" d="M7.10938 0C3.51975 0 0.609375 2.91037 0.609375 6.5C0.609375 10.0896 3.51975 13 7.10938 13C10.699 13 13.6094 10.0896 13.6094 6.5C13.6094 2.91037 10.699 0 7.10938 0ZM7.75937 9.1C7.75937 9.45912 7.4685 9.75 7.10938 9.75C6.75025 9.75 6.45937 9.45912 6.45937 9.1V6.5C6.45937 6.14087 6.75025 5.85 7.10938 5.85C7.4685 5.85 7.75937 6.14087 7.75937 6.5V9.1ZM7.74637 4.02675C7.73825 4.069 7.72525 4.10962 7.709 4.14862C7.69275 4.18762 7.67325 4.225 7.64887 4.26075C7.62612 4.2965 7.5985 4.329 7.56925 4.35987C7.53837 4.38912 7.50588 4.41675 7.47012 4.44112C7.43437 4.46387 7.397 4.48338 7.358 4.49962C7.319 4.51587 7.27837 4.52887 7.23612 4.537C7.19387 4.54513 7.15162 4.55 7.10938 4.55C7.06712 4.55 7.02488 4.54513 6.98263 4.537C6.94037 4.52887 6.89975 4.51587 6.86075 4.49962C6.82175 4.48338 6.78437 4.46387 6.74862 4.44112C6.71287 4.41675 6.68037 4.38912 6.6495 4.35987C6.62025 4.329 6.59262 4.2965 6.56825 4.26075C6.5455 4.225 6.526 4.18762 6.50975 4.14862C6.4935 4.10962 6.4805 4.069 6.47237 4.02675C6.46425 3.9845 6.45937 3.94225 6.45937 3.9C6.45937 3.72937 6.52925 3.562 6.6495 3.44012C6.68037 3.41087 6.71287 3.38325 6.74862 3.35887C6.78437 3.33612 6.82175 3.31662 6.86075 3.30037C6.89975 3.28412 6.94037 3.27112 6.98263 3.263C7.0655 3.24675 7.15325 3.24675 7.23612 3.263C7.27837 3.27112 7.319 3.28412 7.358 3.30037C7.397 3.31662 7.43437 3.33612 7.47012 3.35887C7.50588 3.38325 7.53837 3.41087 7.56925 3.44012C7.6895 3.562 7.75937 3.72937 7.75937 3.9C7.75937 3.94225 7.7545 3.9845 7.74637 4.02675Z" fill="#F5511D"/>
</svg>
