<svg width="120" height="163" viewBox="0 0 120 163" fill="none" xmlns="http://www.w3.org/2000/svg">
<path d="M34.4796 143.442C24.044 120.707 18.3499 93.5881 25.4384 69.0462C31.5887 47.7425 50.8166 26.7225 74.2168 39.9547C106.279 58.0867 103.728 125.256 58.4567 118.281" stroke="black" stroke-width="6" stroke-linecap="round" stroke-linejoin="round"/>
<path d="M66.4433 133.169C66.4433 133.169 57.0218 128.039 52.8864 137.388C48.7511 146.736 66.5958 150.892 66.4433 133.169ZM66.4433 133.169C66.4433 133.169 70.6747 148.411 76.6598 145.618C82.6448 142.826 82.7302 128.171 82.7302 128.171C82.7302 128.171 84.5855 147.969 90.6719 146.649C96.7583 145.329 98.1978 128.595 98.1978 128.595C98.1978 128.595 100.244 149.675 105.887 141.908C111.53 134.142 112.903 119.308 105.417 106.079" stroke="black" stroke-width="6" stroke-linecap="round" stroke-linejoin="round"/>
<path d="M82.0517 94.3097C86.1385 89.5059 82.4847 79.6847 73.8908 72.3735C65.2968 65.0623 55.017 63.0297 50.9301 67.8335C46.8433 72.6374 50.4971 82.4586 59.091 89.7698C67.685 97.081 77.9649 99.1136 82.0517 94.3097Z" fill="black"/>
<path d="M94.2577 70.0496C98.159 71.2104 103.003 66.4998 105.077 59.5282C107.152 52.5566 105.67 45.9641 101.769 44.8034C97.8677 43.6426 93.0236 48.3532 90.9494 55.3248C88.8752 62.2964 90.3564 68.8889 94.2577 70.0496Z" fill="black"/>
<path d="M54.9918 37.9907C59.2863 32.3755 54.6239 21.5949 44.5779 13.9117C34.5318 6.2284 22.9065 4.55195 18.6119 10.1672C14.3174 15.7824 18.9798 26.563 29.0259 34.2462C39.0719 41.9295 50.6972 43.6059 54.9918 37.9907Z" fill="black"/>
<path d="M65.6044 60.7192C67.0216 61.3099 68.6493 60.64 69.2401 59.2228C69.8308 57.8057 69.1609 56.178 67.7437 55.5872C66.3266 54.9965 64.6988 55.6664 64.1081 57.0836C63.5174 58.5007 64.1873 60.1284 65.6044 60.7192Z" fill="black"/>
<path d="M80.458 71.2446C81.8751 71.8353 83.5028 71.1654 84.0936 69.7482C84.6843 68.3311 84.0144 66.7034 82.5972 66.1126C81.1801 65.5219 79.5524 66.1918 78.9616 67.609C78.3709 69.0261 79.0408 70.6538 80.458 71.2446Z" fill="black"/>
</svg>
