<svg width="90" height="122" viewBox="0 0 90 122" fill="none" xmlns="http://www.w3.org/2000/svg">
<path d="M26.288 107.173C18.491 90.1864 14.2365 69.9246 19.5328 51.5879C24.128 35.6708 38.4943 19.9656 55.9779 29.8521C79.933 43.3995 78.0272 93.5857 44.2026 88.3738" stroke="current" stroke-width="5" stroke-linecap="round" stroke-linejoin="round"/>
<path d="M50.1706 99.4978C50.1706 99.4978 43.1313 95.6649 40.0416 102.65C36.9518 109.635 50.2846 112.74 50.1706 99.4978ZM50.1706 99.4978C50.1706 99.4978 53.3322 110.886 57.8039 108.799C62.2757 106.713 62.3395 95.7634 62.3395 95.7634C62.3395 95.7634 63.7257 110.556 68.2732 109.569C72.8207 108.583 73.8962 96.0802 73.8962 96.0802C73.8962 96.0802 75.4254 111.83 79.6414 106.027C83.8575 100.224 84.8834 89.1414 79.2899 79.2574" stroke="current" stroke-width="5" stroke-linecap="round" stroke-linejoin="round"/>
<path d="M61.8323 70.4634C64.8858 66.8742 62.1558 59.5362 55.7348 54.0736C49.3138 48.611 41.6331 47.0923 38.5796 50.6816C35.5261 54.2708 38.2561 61.6088 44.6771 67.0714C51.0981 72.534 58.7788 74.0527 61.8323 70.4634Z" fill="current"/>
<path d="M70.9509 52.3373C73.8658 53.2046 77.4851 49.685 79.0349 44.4762C80.5846 39.2673 79.4779 34.3417 76.563 33.4744C73.6482 32.6072 70.0288 36.1267 68.4791 41.3356C66.9293 46.5444 68.036 51.4701 70.9509 52.3373Z" fill="current"/>
<path d="M41.6124 28.3851C44.8211 24.1896 41.3375 16.1349 33.8316 10.3943C26.3256 4.65368 17.6397 3.40111 14.431 7.59657C11.2223 11.792 14.7059 19.8468 22.2118 25.5874C29.7177 31.328 38.4037 32.5805 41.6124 28.3851Z" fill="current"/>
<path d="M49.5415 45.3664C50.6003 45.8078 51.8165 45.3072 52.2578 44.2484C52.6992 43.1896 52.1987 41.9734 51.1398 41.532C50.081 41.0907 48.8648 41.5912 48.4235 42.65C47.9821 43.7089 48.4826 44.925 49.5415 45.3664Z" fill="current"/>
<path d="M60.6411 53.2305C61.6999 53.6719 62.9161 53.1713 63.3575 52.1125C63.7988 51.0537 63.2983 49.8375 62.2395 49.3961C61.1806 48.9547 59.9645 49.4553 59.5231 50.5141C59.0817 51.573 59.5822 52.7891 60.6411 53.2305Z" fill="current"/>
</svg>
