<svg width="100" height="101" viewBox="0 0 100 101" fill="none" xmlns="http://www.w3.org/2000/svg">
<path d="M35.0117 87.9253C28.7661 74.3186 25.3583 58.0886 29.6006 43.4008C33.2815 30.651 44.789 18.0709 58.7936 25.9901C77.9819 36.8418 76.4553 77.0414 49.3614 72.8666" stroke="black" stroke-width="4" stroke-linecap="round" stroke-linejoin="round"/>
<path d="M54.1418 81.7762C54.1418 81.7762 48.5033 78.7061 46.0284 84.301C43.5535 89.8959 54.2332 92.3832 54.1418 81.7762ZM54.1418 81.7762C54.1418 81.7762 56.6743 90.8979 60.2562 89.2269C63.8381 87.5559 63.8893 78.7849 63.8893 78.7849C63.8893 78.7849 64.9996 90.6336 68.6422 89.8438C72.2848 89.0539 73.1463 79.0387 73.1463 79.0387C73.1463 79.0387 74.3712 91.6548 77.7483 87.0066C81.1254 82.3583 81.9472 73.4807 77.4667 65.5635" stroke="black" stroke-width="4" stroke-linecap="round" stroke-linejoin="round"/>
<path d="M63.484 58.5197C65.9299 55.6446 63.7431 49.7668 58.5998 45.3912C53.4565 41.0156 47.3042 39.7992 44.8584 42.6742C42.4125 45.5492 44.5992 51.427 49.7425 55.8026C54.8858 60.1782 61.0381 61.3947 63.484 58.5197Z" fill="black"/>
<path d="M70.7869 44.001C73.1218 44.6957 76.0209 41.8765 77.2623 37.7041C78.5037 33.5318 77.6172 29.5863 75.2823 28.8916C72.9475 28.1969 70.0484 31.0161 68.807 35.1885C67.5656 39.3608 68.4521 43.3063 70.7869 44.001Z" fill="black"/>
<path d="M47.2857 24.8149C49.856 21.4543 47.0656 15.0024 41.0532 10.4041C35.0409 5.80585 28.0834 4.80252 25.5132 8.16313C22.9429 11.5237 25.7333 17.9757 31.7457 22.574C37.758 27.1722 44.7155 28.1755 47.2857 24.8149Z" fill="black"/>
<path d="M53.6382 38.4166C54.4863 38.7702 55.4605 38.3692 55.814 37.5211C56.1676 36.6729 55.7666 35.6988 54.9185 35.3452C54.0704 34.9917 53.0962 35.3926 52.7427 36.2408C52.3891 37.0889 52.7901 38.0631 53.6382 38.4166Z" fill="black"/>
<path d="M62.5288 44.7164C63.3769 45.07 64.3511 44.669 64.7047 43.8209C65.0582 42.9727 64.6573 41.9986 63.8091 41.645C62.961 41.2915 61.9868 41.6924 61.6333 42.5406C61.2797 43.3887 61.6807 44.3629 62.5288 44.7164Z" fill="black"/>
</svg>
