<svg width="50" height="50" viewBox="0 0 50 50" fill="none" xmlns="http://www.w3.org/2000/svg">
<g id="google_logo">
<g id="Group 2829">
<path id="Vector" d="M25.2097 50H24.7903C18.1937 50 11.9784 47.3927 7.28293 42.6611C2.58743 37.9295 0 31.6665 0 25.0192V24.9808C0 18.3335 2.58743 12.0705 7.28293 7.3389C11.9784 2.60731 18.1937 0 24.7903 0H25.2097C31.8063 0 38.0216 2.60731 42.7171 7.3389C47.4126 12.0705 50 18.3335 50 24.9808V25.0192C50 31.6665 47.4126 37.9295 42.7171 42.6611C38.0216 47.3927 31.8063 50 25.2097 50ZM24.7903 1.52596C18.5968 1.52596 12.7574 3.97409 8.35058 8.42024C3.94378 12.8664 1.50888 18.7507 1.50888 24.9863V25.0247C1.50888 31.2658 3.93834 37.1501 8.35058 41.5907C12.7628 46.0369 18.6022 48.485 24.7903 48.485H25.2097C31.4032 48.485 37.2426 46.0369 41.6494 41.5907C46.0617 37.1446 48.4911 31.2603 48.4911 25.0247V24.9863C48.4911 18.7452 46.0617 12.8609 41.6494 8.42024C37.2372 3.97409 31.3978 1.52596 25.2097 1.52596H24.7903Z" fill="#EEEEEE"/>
<g id="Clip path group">
<mask id="mask0_343_657" style="mask-type:luminance" maskUnits="userSpaceOnUse" x="25" y="21" width="18" height="18">
<g id="clippath">
<path id="Vector_2" d="M42.4769 25.4119C42.4769 24.1375 42.3633 22.9072 42.1578 21.7266H25.5312V28.6945H35.0345C34.6234 30.9454 33.3794 32.8542 31.5133 34.1286V38.647H37.2196C40.5568 35.5134 42.4823 30.8957 42.4823 25.4119H42.4769Z" fill="white"/>
</g>
</mask>
<g mask="url(#mask0_343_657)">
<g id="Group">
<path id="Vector_3" d="M52.2874 11.7236H15.7188V48.654H52.2874V11.7236Z" fill="#3E82F1"/>
</g>
</g>
</g>
<g id="Clip path group_2">
<mask id="mask1_343_657" style="mask-type:luminance" maskUnits="userSpaceOnUse" x="9" y="28" width="29" height="16">
<g id="clippath-1">
<path id="Vector_4" d="M25.5313 43.0096C30.2964 43.0096 34.2935 41.3987 37.2142 38.6457L31.508 34.1274C29.9286 35.2087 27.9057 35.8487 25.5313 35.8487C20.9338 35.8487 17.0395 32.6819 15.6549 28.4229H9.75391V33.0902C12.6584 38.9768 18.6297 43.0096 25.5313 43.0096Z" fill="white"/>
</g>
</mask>
<g mask="url(#mask1_343_657)">
<g id="Group_2">
<path id="Vector_5" d="M47.0193 18.415H-0.0585938V53.0118H47.0193V18.415Z" fill="#32A753"/>
</g>
</g>
</g>
<g id="Clip path group_3">
<mask id="mask2_343_657" style="mask-type:luminance" maskUnits="userSpaceOnUse" x="7" y="16" width="9" height="18">
<g id="clippath-2">
<path id="Vector_6" d="M15.6489 28.4224C15.2973 27.3411 15.0972 26.188 15.0972 25.0019C15.0972 23.8158 15.2973 22.6627 15.6489 21.5814V16.9141H9.74794C8.5526 19.347 7.87109 22.0945 7.87109 25.0019C7.87109 27.9093 8.5526 30.6568 9.74794 33.0897L15.6489 28.4224Z" fill="white"/>
</g>
</mask>
<g mask="url(#mask2_343_657)">
<g id="Group_3">
<path id="Vector_7" d="M25.4598 6.90625H-1.93555V43.0919H25.4598V6.90625Z" fill="#F9BB00"/>
</g>
</g>
</g>
<g id="Clip path group_4">
<mask id="mask3_343_657" style="mask-type:luminance" maskUnits="userSpaceOnUse" x="9" y="6" width="29" height="16">
<g id="clippath-3">
<path id="Vector_8" d="M25.5313 14.1571C28.1221 14.1571 30.4532 15.0674 32.2814 16.8493L37.344 11.6855C34.2881 8.77807 30.291 6.99609 25.5313 6.99609C18.6297 6.99609 12.6584 11.029 9.75391 16.9156L15.6549 21.5829C17.0449 17.3238 20.9338 14.1571 25.5313 14.1571Z" fill="white"/>
</g>
</mask>
<g mask="url(#mask3_343_657)">
<g id="Group_4">
<path id="Vector_9" d="M47.1491 -3.01172H-0.0585938V31.585H47.1491V-3.01172Z" fill="#E74133"/>
</g>
</g>
</g>
</g>
</g>
</svg>
