<svg width="50" height="50" viewBox="0 0 50 50" fill="none" xmlns="http://www.w3.org/2000/svg">
<g id="kakao_logo" clip-path="url(#clip0_343_630)">
<path id="Vector" d="M25.0029 50.0057C38.8115 50.0057 50.0057 38.8115 50.0057 25.0029C50.0057 11.1942 38.8115 0 25.0029 0C11.1942 0 0 11.1942 0 25.0029C0 38.8115 11.1942 50.0057 25.0029 50.0057Z" fill="#F8E049"/>
<path id="Vector_2" d="M25.0025 10.2796C16.1548 10.2796 8.97852 15.9499 8.97852 22.9493C8.97852 27.5015 12.019 31.4947 16.5826 33.7252C16.2461 34.9744 15.3676 38.2602 15.1907 38.9619C14.974 39.8347 15.5102 39.8233 15.8639 39.5894C16.1377 39.4068 20.2563 36.6059 22.0304 35.3966C22.9945 35.5392 23.9871 35.6133 25.0025 35.6133C33.8502 35.6133 41.0264 29.9431 41.0264 22.9436C41.0264 15.9442 33.8502 10.2739 25.0025 10.2739" fill="#371C1D"/>
<path id="Vector_3" d="M13.8227 20.616H15.4713C15.4713 20.616 15.4827 25.1454 15.4713 26.2007C15.4713 26.9708 17.1883 26.9822 17.1826 26.2121V20.673C17.1826 20.673 17.7417 20.673 18.8312 20.673C19.8581 20.673 19.8581 19.0586 18.8312 19.0586C17.6732 19.0586 13.817 19.0244 13.817 19.0244C12.8472 19.0244 12.8529 20.6046 13.817 20.6046" fill="#F8E049"/>
<g id="Clip path group">
<mask id="mask0_343_630" style="mask-type:luminance" maskUnits="userSpaceOnUse" x="13" y="19" width="7" height="8">
<g id="clippath-1">
<path id="Vector_4" d="M13.8227 20.616H15.4713C15.4713 20.616 15.4827 25.1454 15.4713 26.2007C15.4713 26.9708 17.1883 26.9822 17.1826 26.2121V20.673C17.1826 20.673 17.7417 20.673 18.8312 20.673C19.8581 20.673 19.8581 19.0586 18.8312 19.0586C17.6732 19.0586 13.817 19.0244 13.817 19.0244C12.8472 19.0244 12.8529 20.6046 13.817 20.6046" fill="white"/>
</g>
</mask>
<g mask="url(#mask0_343_630)">
<g id="Group">
<path id="Vector_5" d="M19.8644 19.0356H12.8535V26.982H19.8644V19.0356Z" fill="#F8E049"/>
</g>
</g>
</g>
<path id="Vector_6" d="M21.7171 20.9072L22.6355 23.7822H20.7245L21.7171 20.9072ZM20.6903 19.5609C20.2852 20.4565 18.8192 24.6778 18.3343 25.7959C17.9806 26.606 19.498 27.2677 19.8517 26.4576L20.1826 25.3053H23.2002C23.2002 25.3053 23.0976 25.351 23.4969 26.412C23.822 27.2677 25.3908 26.6744 25.0656 25.8187C24.6036 24.5923 23.0006 20.1884 22.7097 19.5666C22.5728 19.2757 22.0936 19.0703 21.6258 19.0703C21.2379 19.0703 20.8614 19.2129 20.7017 19.5666" fill="#F8E049"/>
<g id="Clip path group_2">
<mask id="mask1_343_630" style="mask-type:luminance" maskUnits="userSpaceOnUse" x="18" y="19" width="8" height="8">
<g id="clippath-4">
<path id="Vector_7" d="M21.7171 20.9072L22.6355 23.7822H20.7245L21.7171 20.9072ZM20.6903 19.5609C20.2852 20.4565 18.8192 24.6778 18.3343 25.7959C17.9806 26.606 19.498 27.2677 19.8517 26.4576L20.1826 25.3053H23.2002C23.2002 25.3053 23.0976 25.351 23.4969 26.412C23.822 27.2677 25.3908 26.6744 25.0656 25.8187C24.6036 24.5923 23.0006 20.1884 22.7097 19.5666C22.5728 19.2757 22.0936 19.0703 21.6258 19.0703C21.2379 19.0703 20.8614 19.2129 20.7017 19.5666" fill="white"/>
</g>
</mask>
<g mask="url(#mask1_343_630)">
<g id="Group_2">
<path id="Vector_8" d="M25.3791 19.0645H17.9746V27.2618H25.3791V19.0645Z" fill="#F8E049"/>
</g>
</g>
</g>
<path id="Vector_9" d="M25.6353 19.8232C25.6353 21.255 25.641 25.8813 25.641 25.8813C25.641 25.8813 25.5098 26.7998 26.297 26.7998C27.0843 26.7998 28.8355 26.7884 29.6113 26.7884C30.3872 26.7884 30.3815 25.1398 29.6113 25.1398C28.8412 25.1398 27.4208 25.134 27.4208 25.134C27.4208 25.134 27.4265 20.8557 27.4208 19.8174C27.4208 19.3155 26.9759 19.0645 26.5309 19.0645C26.086 19.0645 25.6353 19.3155 25.6353 19.8232Z" fill="#F8E049"/>
<g id="Clip path group_3">
<mask id="mask2_343_630" style="mask-type:luminance" maskUnits="userSpaceOnUse" x="25" y="19" width="6" height="8">
<g id="clippath-7">
<path id="Vector_10" d="M25.6353 19.8232C25.6353 21.255 25.641 25.8813 25.641 25.8813C25.641 25.8813 25.5098 26.7998 26.297 26.7998C27.0843 26.7998 28.8355 26.7884 29.6113 26.7884C30.3872 26.7884 30.3815 25.1398 29.6113 25.1398C28.8412 25.1398 27.4208 25.134 27.4208 25.134C27.4208 25.134 27.4265 20.8557 27.4208 19.8174C27.4208 19.3155 26.9759 19.0645 26.5309 19.0645C26.086 19.0645 25.6353 19.3155 25.6353 19.8232Z" fill="white"/>
</g>
</mask>
<g mask="url(#mask2_343_630)">
<g id="Group_3">
<path id="Vector_11" d="M30.3814 19.0703H25.5098V26.8056H30.3814V19.0703Z" fill="#F8E049"/>
</g>
</g>
</g>
<path id="Vector_12" d="M30.5938 19.5952C30.611 20.2227 30.571 25.9101 30.5767 26.3322C30.5767 26.9996 32.271 26.9939 32.271 26.3322C32.271 25.5621 32.271 24.0961 32.271 24.0961L32.7673 23.6967L34.9407 26.6631C35.3799 27.2449 36.7661 26.1953 36.3269 25.6135L34.0166 22.5729C34.0166 22.5729 35.5853 20.8787 36.2014 20.2626C36.5608 19.9032 35.4484 18.7795 35.0833 19.1388C34.7353 19.4868 32.2767 21.9455 32.2767 21.9455C32.2767 21.9455 32.2995 20.3995 32.2767 19.5496C32.2653 19.2244 31.8717 19.0704 31.4666 19.0704C31.0331 19.0704 30.5881 19.2472 30.5938 19.5952Z" fill="#F8E049"/>
<g id="Clip path group_4">
<mask id="mask3_343_630" style="mask-type:luminance" maskUnits="userSpaceOnUse" x="30" y="19" width="7" height="8">
<g id="clippath-10">
<path id="Vector_13" d="M30.5938 19.5952C30.611 20.2227 30.571 25.9101 30.5767 26.3322C30.5767 26.9996 32.271 26.9939 32.271 26.3322C32.271 25.5621 32.271 24.0961 32.271 24.0961L32.7673 23.6967L34.9407 26.6631C35.3799 27.2449 36.7661 26.1953 36.3269 25.6135L34.0166 22.5729C34.0166 22.5729 35.5853 20.8787 36.2014 20.2626C36.5608 19.9032 35.4484 18.7795 35.0833 19.1388C34.7353 19.4868 32.2767 21.9455 32.2767 21.9455C32.2767 21.9455 32.2995 20.3995 32.2767 19.5496C32.2653 19.2244 31.8717 19.0704 31.4666 19.0704C31.0331 19.0704 30.5881 19.2472 30.5938 19.5952Z" fill="white"/>
</g>
</mask>
<g mask="url(#mask3_343_630)">
<g id="Group_4">
<path id="Vector_14" d="M36.7597 18.7852H30.5703V27.2449H36.7597V18.7852Z" fill="#F8E049"/>
</g>
</g>
</g>
</g>
<defs>
<clipPath id="clip0_343_630">
<rect width="50" height="50" fill="white"/>
</clipPath>
</defs>
</svg>
